<?xml version="1.0" encoding="UTF-8"?>
<svg id="Camada_2" data-name="Camada 2" xmlns="http://www.w3.org/2000/svg" viewBox="0 0 4148.17 2747.04">
  <defs>
    <style>
      .cls-1 {
        fill: #3f3f3f;
        stroke-width: 0px;
      }
    </style>
  </defs>
  <g id="Camada_2-2" data-name="Camada 2">
    <path class="cls-1" d="M4147.46,1452.16l-4.63-7.74c-.38-.64-.9-1.18-1.51-1.59l-5.15-3.44,1.07-1.97c.99-1.82.76-4.06-.59-5.64l-1.06-1.24c-.95-1.11-2.34-1.75-3.8-1.75h-1.45l-1.03-.82-.17-1.9c-.13-1.4-.83-2.68-1.95-3.53-.88-.67-1.94-1.02-3.03-1.02-.3,0-.6.03-.89.08l-2.45.44-1-1.87c-.74-1.39-2.1-2.34-3.66-2.58-.25-.04-.5-.06-.75-.06-.84,0-1.67.21-2.4.62l-4.4-.94c-.35-.07-.7-.11-1.05-.11-1.47,0-2.88.65-3.84,1.8l-.12.14-5.71-3.69c-.82-.53-1.76-.8-2.71-.8-.44,0-.88.06-1.31.18l-3.13.85c-.94.25-1.76.77-2.4,1.47l-1.71-1.33c-.86-1.63-2.56-2.67-4.42-2.67-.17,0-.33,0-.5.02l-1.92.19-1.14-.76c-.83-.56-1.8-.84-2.77-.84-.46,0-.93.06-1.38.2l-1.37-1.77c-.96-1.24-2.43-1.94-3.95-1.94-.37,0-.75.04-1.12.13l-4.48,1.03c-.1,0-.2,0-.3,0-1.31,0-2.58.51-3.52,1.45-.67.67-1.13,1.5-1.34,2.39-.53.35-.99.81-1.35,1.34-.76,1.11-1.04,2.48-.77,3.79l.3,1.52-.53.44c.07-.33.11-.68.11-1.03v-3.88c0-2.16-1.38-4.02-3.32-4.71.37-.86.49-1.82.34-2.77-.27-1.63-1.32-3.02-2.81-3.72l-5.27-3.08c-.77-.45-1.64-.68-2.52-.68h-1.19c-1.89,0-3.62,1.07-4.47,2.76l-.95,1.89-2.81,1.51c-1.2.65-2.09,1.76-2.45,3.08-.31,1.12-.21,2.31.26,3.37l.28,2.21c.05.4.15.78.29,1.15l-1.13-.98c-.62-.54-1.36-.92-2.16-1.1l-4.88-1.13c-.37-.09-.75-.13-1.12-.13-.83,0-1.65.21-2.39.61l-4.06,2.21c-.71.39-1.32.94-1.77,1.62l-.79,1.19-.96-.14c-.24-.03-.47-.05-.71-.05-1.02,0-2.02.31-2.87.91l-3.22,2.26c-.1.07-.18.15-.27.22-.43-.26-.88-.48-1.38-.61l-2.5-.63c-.06-.24-.13-.48-.22-.71l-.75-1.87c-.78-1.95-2.66-3.14-4.64-3.14-.62,0-1.25.12-1.86.36-2.31.92-3.55,3.38-3.02,5.73l-4.87,6.65c-.92-.88-2.15-1.4-3.46-1.4.05-.57.01-1.16-.14-1.73-.39-1.49-1.45-2.73-2.87-3.33l-3.48-1.49c-.64-.28-1.31-.41-1.97-.41-.02,0-.04,0-.06,0-.85-.58-1.83-.88-2.82-.88-.47,0-.93.09-1.38.22-.94-.87-2.15-1.35-3.4-1.35-.56,0-1.13.09-1.68.29l-4,1.43-.68-.68c-.56-.55-1.23-.94-1.95-1.18-.07-.91-.62-1.76-1.52-2.13-.31-.13-.64-.19-.96-.19-.98,0-1.91.58-2.31,1.54l-2.82,6.77c-.93-1.21-2.35-1.92-3.85-1.96-.56-.52-1.24-.91-1.99-1.13.11-1.18-.62-2.3-1.8-2.63-.23-.07-.46-.1-.68-.1-.93,0-1.8.53-2.23,1.38l-3.38-3.07c-.96-.87-2.16-1.3-3.36-1.3-1.36,0-2.71.55-3.7,1.64-.01.01-.02.03-.03.05l-.44-.28c-.83-.53-1.76-.78-2.68-.78-.62,0-1.23.11-1.8.33l-.35-6.33,1.33-2.34c.38-.67.61-1.43.65-2.2l.41-7.33c.07-1.28-.35-2.55-1.19-3.53l-.11-.13c-.98-1.14-2.38-1.75-3.8-1.75-.34,0-.67.03-1.01.1l-3.19-1.73c-.75-.41-1.57-.61-2.39-.61-.97,0-1.94.28-2.78.84l-2.12,1.41.14-2.19.46-.46c1.59-1.6,1.92-4.06.8-6.02l-2.63-4.58c-.49-.85-1.21-1.54-2.09-1.98l-1.86-.94c-.71-.36-1.48-.53-2.25-.53-.17,0-.33.02-.5.04-.36-.73-.9-1.37-1.57-1.84l-1.21-1.7c-.95-1.33-2.48-2.09-4.07-2.09-.37,0-.75.04-1.12.13l-.49.11.73-2.02c.36-.99.39-2.07.09-3.09l-.31-1.05c-.56-1.92-2.2-3.32-4.18-3.56l-.84-.11-.78-2.1.37-3.7.99-1.24c.7-.88,1.09-1.98,1.09-3.11v-.07c0-.67-.13-1.33-.39-1.95l-5.2-12.3c-.09-.22-.2-.43-.32-.63l-4.15-6.91c-.31-.52-.72-.98-1.2-1.36l-5.82-4.58c-.88-.69-1.97-1.07-3.09-1.07-.12,0-.24,0-.37.01l-4.95.36-2.62-2.29c-.77-.68-1.74-1.1-2.76-1.21l-9.94-1.06c-.18-.02-.36-.03-.53-.03-1.32,0-2.6.53-3.54,1.47-.91.91-1.42,2.14-1.45,3.41l-4.96,1.66c-.89.3-1.68.84-2.28,1.57l-3,3.65-2.52-.76c-.47-.14-.95-.21-1.44-.21-.69,0-1.38.14-2.03.43l-1.03.46s-.06.04-.1.06c-.16-.22-.33-.44-.52-.63l-.91-.91c-.94-.94-2.22-1.46-3.53-1.46-.15,0-.3,0-.45.02l-3.14.28c-1.41.13-2.7.85-3.55,1.99l-.31.41-5.01,1.43c-1.45.41-2.63,1.46-3.23,2.84l-3.35,7.83-16.33-.43s-.09,0-.13,0c-1.16,0-2.28.4-3.18,1.14l-7.5,6.17c-.29.24-.55.5-.78.8l-2.21,2.85-9.54-3.58c-.56-.21-1.16-.32-1.76-.32-.41,0-.81.05-1.21.15l-2.65.66-3.34-.74c-.36-.08-.72-.12-1.08-.12-.41,0-.82.05-1.22.15l-5.58,1.4c-.45-.5-1.01-.92-1.64-1.21-.66-.3-1.37-.46-2.08-.46-.83,0-1.65.2-2.39.61l-1.86,1.01-8.47,1.35c-.75.12-1.46.41-2.08.84l-8.43,5.9-1.75-.65c-.57-.21-1.16-.32-1.75-.32-.77,0-1.54.18-2.24.53l-4.83,2.43-6.28,2.21c-.91.32-1.67.89-2.23,1.6-.35-.07-.69-.12-1.04-.12-1.03,0-2.05.32-2.91.94l-5.79,4.15h-1.07c-1.42,0-2.77.6-3.72,1.66l-3.42,3.8c-.36.41-.66.87-.88,1.37l-2.47,5.74c-.46,1.07-.53,2.26-.21,3.37l.16.54c-.3-.06-.6-.09-.91-.09-1.21,0-2.43.44-3.39,1.33l-1.87,1.72-10.93,3.64c-.38.13-.74.3-1.08.51l-1.66,1.04s0,0,0,0l-2.33,1.46c-.86.54-1.49,1.31-1.89,2.18l-.67.07c-.18.02-.36.05-.54.11,0,0,0,0,0,0-.38.12-.73.34-1,.62l-1.36,1.35c-.78-.48-1.69-.73-2.61-.73-.75,0-1.52.17-2.23.53l-11.12,5.56c-.39.18-.75.42-1.07.68-.57.48-1.02,1.08-1.33,1.74-.31.66-.47,1.4-.46,2.15,0,.42.06.83.17,1.25l.56,2.25-.3.7s0,0,0,0l-2.02,4.73c-.23.54-.36,1.11-.39,1.69l-1.29.98-.12-.02-6.62-1.11s0,0,0,0l-.1-.02c-.25-.04-.5-.06-.75-.06-.03,0-.05,0-.08,0,0,0,0,0,0,0,0,0,0,0,0,0-.01,0-.02,0-.03,0-.17,0-.35,0-.52.03l-13.45,1.5h0s-4.48.5-4.48.5c-1.68.19-3.16,1.22-3.92,2.73l-.46.93-3.75.94c-1.02.25-1.93.82-2.61,1.63l-2.08,2.47s0,0,0,0l-1.44,1.7-1.54-.34c-.36-.08-.72-.12-1.08-.12-.96,0-1.91.28-2.73.81l-10.44,6.81.23-4.35c.06-1.22-.32-2.42-1.08-3.38l-.61-.76v-.04s0,0,0,0l.12-.74c.23-1.34-.11-2.72-.92-3.81s-2.04-1.81-3.39-1.97l-3.73-.47-1.37-.32s0,0,0,0l-1.99-.46c-.69-2.07-2.63-3.41-4.74-3.41-.45,0-.91.06-1.37.19-.06.02-.12.05-.18.07l-.86-.6c-.86-.6-1.86-.9-2.86-.9-.33,0-.67.03-.99.1l-5.63-4.74c-.92-.78-2.07-1.18-3.22-1.18-.78,0-1.57.18-2.3.56-1.58.82-2.59,2.4-2.69,4.15l-.16.37c-1.75.17-3.36,1.25-4.1,2.98l-2.66,6.13-1.29-.35c-.43-.12-.88-.18-1.32-.18-1.27,0-2.51.48-3.45,1.38l-9.84,9.38c-.54-.19-1.1-.3-1.66-.3-1.28,0-2.57.49-3.54,1.47l-.75.75s0,0,0,0l-.56.56-1.38-.14-1.25-.12c-.15-.02-.31-.02-.46-.02-.01,0-.02,0-.03,0-.28,0-.55.03-.83.08-.06,0-.12.02-.17.03-.03,0-.07,0-.1.02l-8.86,2.01-.77-.51c1.09-.1,2.14-.54,2.96-1.31l5.5-5.15c1.65-1.55,2.06-4.02.98-6.02l-2.13-3.96c-.53-.97-1.36-1.75-2.37-2.2l-2.95-1.31-.1-.17c-.72-1.27-1.96-2.16-3.4-2.43-.31-.06-.63-.09-.95-.09-1.12,0-2.22.38-3.11,1.09l-.87.7c-1.56,1.24-2.19,3.24-1.75,5.09l-.43.34-4.96.35c-1.54.11-2.95.93-3.81,2.22l-4.82,7.25-13.02,4.64-6.98,1.32-.82-.42-3.47-4.09h0c1.59-1.14,2.37-3.1,2-5.01l2.74-4.81c.73-1.28.85-2.79.37-4.14l1.16-2.61c1.98-1.19,2.93-3.62,2.17-5.88l-.99-2.96.12-.42c.73-2.54-.65-5.21-3.14-6.09l-4.87-1.72c-.54-.19-1.11-.29-1.67-.29-1.08,0-2.16.35-3.04,1.03l-6.2,4.76-4.66-2.07c-.65-.29-1.34-.43-2.03-.43-1.33,0-2.63.53-3.59,1.51l-3.57,2.77c-.95.74-1.61,1.79-1.84,2.98l-.08.38-.91.46c-1.27.64-2.2,1.78-2.57,3.15l-.72,2.63c-.55,2.02.22,4.17,1.92,5.38l1.24.89v.04c.37,1.82,1.7,3.29,3.48,3.82l2.5.75,3.56,7.12c.56,1.13,1.54,2,2.72,2.45l1.84.69.46,1.8c.05.19.11.37.17.55l-6.69,3.18-5.36-1.91c-.54-.19-1.11-.29-1.68-.29-.33,0-.65.03-.98.1l-3.21.64c-1.34.27-2.51,1.07-3.24,2.22l-2.34,3.68-.58.12c-1.12.22-2.12.82-2.85,1.69l-1.55,1.85-6.94,3.03c-.66.29-1.24.71-1.72,1.24l-3.59,4-8.79,2c-1.7.39-3.08,1.63-3.64,3.29l-3.05,9.12c-.58,1.73-.17,3.65,1.08,4.99l4.89,5.27c.69.74,1.59,1.26,2.58,1.48l2.86.63c.36.08.72.12,1.08.12.72,0,1.43-.15,2.09-.46l17.08-7.85,9.95.75c.05.77.27,1.52.67,2.21l4.46,7.7v2.23c0,1.63.8,3.15,2.1,4.08l.12,1.47c.07.87.37,1.69.84,2.38-.5.51-.91,1.12-1.16,1.81l-.61,1.68c-1.48.06-2.88.78-3.8,2l-1.6,2.13c-.52.7-.85,1.52-.96,2.38l-.39,3.14c-.03.21-.04.41-.04.62v.35c0,1.79.96,3.45,2.52,4.34l.3.17c-.11-.03-.22-.05-.33-.07l-3.29-.55-.2-2.61c-.17-2.27-1.86-4.13-4.09-4.54l-1.61-.29c-.3-.05-.6-.08-.89-.08-1.87,0-3.61,1.05-4.47,2.76l-.75,1.5-3.02,1.37c-1.95.88-3.11,2.91-2.91,5.03l1.02,10.53c.13,1.36.82,2.6,1.88,3.44-.23.26-.44.53-.61.83l-3.9,3.03-5.05,2.89-2.78-3.39-.75-4.85c-.18-1.2-.8-2.29-1.73-3.07l-.58-.49c-.93-.78-2.07-1.17-3.21-1.17s-2.28.39-3.21,1.17l-.03.03-.47-.27c-.77-.44-1.63-.66-2.49-.66-1.15,0-2.29.4-3.21,1.17l-.66.55-1.81-.45c-.4-.1-.8-.15-1.21-.15-.84,0-1.68.21-2.43.63l-2.57,1.43c-1.25.69-2.14,1.89-2.45,3.29l-.53,2.4-1.18.79c-1.24.83-2.05,2.17-2.2,3.66l-.31,3.09-2.24,2.99-.88.44c-.96.49-1.71,1.26-2.18,2.17-.15-.01-.31-.03-.46-.03-.66,0-1.32.13-1.93.39h-2.12l-.28-4.71c-.08-1.36-.71-2.61-1.71-3.48l.83-3.33c.29-1.16.15-2.38-.38-3.45l-.66-1.31c-.51-1.02-1.36-1.84-2.41-2.31l-3.97-1.8.46-1.37c.66-1.97.02-4.15-1.59-5.46-.91-.74-2.03-1.12-3.15-1.12-.86,0-1.73.22-2.51.68l-2.63,1.53c-1.17.68-2.01,1.8-2.33,3.11l-.58,2.32-4.92,5.34-3.79.32c-1.52.13-2.91.95-3.75,2.22l-1.22,1.84-1.33,1.58c-.29-.05-.58-.08-.87-.08-1.15,0-2.28.39-3.2,1.16l-4.3,3.57-4.61,1.33c-2.14.62-3.62,2.58-3.62,4.81v.1l-1.51.33c-1.34.3-2.51,1.14-3.21,2.32l-1.45,2.42-5.67-1.68c-.46-.14-.94-.2-1.42-.2-.8,0-1.59.19-2.32.57l-8.66,4.53c-.33.17-.62.38-.89.61-.2-.08-.41-.16-.62-.21l-8.97-2.44c-.43-.12-.87-.18-1.31-.18-.34,0-.69.04-1.03.11l-8.17,1.72c-.88.18-1.69.6-2.35,1.21l-5.03,4.61-5.84,1.68c-.75.22-1.44.61-2.02,1.14l-5.08,4.71-2.81-2.01.23-.19c.45-.37.83-.82,1.12-1.32l4.04-6.87c.86-1.46.92-3.25.16-4.76l-1.66-3.33-.58-6.42c-.16-1.71-1.18-3.22-2.71-4-.71-.36-1.49-.54-2.27-.54-.89,0-1.78.24-2.57.71l-1.08.65-12.64,2.27-1.29-.74c-.77-.44-1.63-.66-2.49-.66-1.03,0-2.05.32-2.92.94l-1.85,1.33-14.25,4.89c-1.63.56-2.86,1.93-3.25,3.61l-.48,2.09-.69-.34c-.69-.35-1.46-.53-2.24-.53h-3.13l-1.19-3.56c-.32-.97-.93-1.81-1.74-2.42l-.34-.25c-.87-.66-1.93-1-3-1-.44,0-.88.06-1.31.18l-3.49.95c-.54.15-1.04.39-1.5.7-.39-.09-.78-.16-1.17-.16-1.42,0-2.84.6-3.83,1.78l-2.8,3.32-3.82-2.12s0,0,0,0l-1.54-.86c-.07-.04-.15-.07-.22-.1-.09-.04-.18-.09-.27-.13-.13-.05-.26-.1-.39-.14-.08-.02-.15-.05-.23-.07-.16-.04-.32-.07-.48-.1-.06-.01-.12-.03-.17-.03-.22-.03-.44-.05-.66-.05,0,0,0,0,0,0,0,0,0,0,0,0-.2,0-.41.02-.61.04-.05,0-.1.02-.15.03-.15.02-.3.05-.45.09-.07.02-.13.04-.2.06-.13.04-.25.08-.38.13-.08.03-.15.06-.23.09-.04.02-.08.03-.13.05l-9.47,4.48c-.43.2-.83.47-1.18.78l-1.7,1.51-2.53-1.55-4.56-5.96s0,0,0,0l-1.36-1.78c-.04-.06-.09-.1-.14-.16.06-.22.1-.44.13-.66.1-.8-.01-1.57-.27-2.28,1.26-1.05,1.98-2.69,1.76-4.44l-.75-6.04c-.17-1.4-.92-2.58-1.97-3.36l.14-.42c.51-1.52.26-3.18-.67-4.48l-1.46-2.05c-.15-.51-.4-.98-.7-1.41l.14-.1c.82-.55,1.47-1.33,1.85-2.25l5.34-12.9,2.4-1.2c.96-.48,1.75-1.26,2.23-2.23l1.05-2.09c1.88-.54,3.33-2.16,3.58-4.19l.06-.47c1.36-1,2.16-2.66,2.02-4.42-.18-2.29-1.89-4.16-4.16-4.54l-4.55-.76c-.28-.05-.55-.07-.83-.07-1,0-1.99.3-2.82.87l-3.93-4.91c-.68-.85-1.63-1.46-2.69-1.73l-2.48-.62-.19-.19c-.96-.97-2.25-1.48-3.55-1.48-.76,0-1.53.17-2.24.53l-.55.27-5.27-1.23-5.36-3.06c-.77-.44-1.62-.66-2.48-.66-.89,0-1.78.24-2.57.71l-.12.07-2.64-1.17-.28-.46c-.91-1.51-2.54-2.42-4.28-2.42-.14,0-.28,0-.42.02l-2.33.19-1.73-6.93c-.32-1.28-1.14-2.39-2.27-3.07l-2.34-1.41c-.8-.48-1.69-.72-2.58-.72-.08,0-.17.02-.25.02.25-.51.41-1.06.48-1.63.16-1.41-.29-2.82-1.23-3.88l-1.69-1.9-.34-1.36,2.29-.92,1.97.49c.4.1.81.15,1.21.15,1.16,0,2.29-.4,3.2-1.16l1.52-1.27,5.95-1.28c.58-.12,1.13-.35,1.62-.67l4.13-2.62,2.06.69c.52.17,1.05.26,1.58.26,1.12,0,2.22-.38,3.12-1.1l.26-.21,1.21.52c.57,1.1,1.54,1.96,2.74,2.39.55.2,1.12.3,1.69.3,1.16,0,2.29-.4,3.21-1.16l.85-.71c1.14-.95,1.79-2.35,1.79-3.84v-3.24c0-.67-.14-1.34-.4-1.96l-.91-2.14c-.47-1.09-1.3-1.98-2.36-2.51l-3.85-1.93c-.35-.18-.73-.31-1.11-.4l-5.36-1.23-.72-.9.35-1.4,3.22-.76c1.64-.38,2.97-1.57,3.55-3.15.58-1.58.33-3.34-.67-4.7l-5.11-6.91,1.1-1.59c.99-1.43,1.16-3.28.46-4.87-.7-1.59-2.19-2.7-3.91-2.93l-1.89-.25-.85-2.11,8.22-7.44c1.74-1.57,2.15-4.14.99-6.18-.91-1.6-2.59-2.53-4.35-2.53-.35,0-.71.04-1.06.11h-2.53l-4.44-2.58-.08-.5c-.28-1.66-1.37-3.07-2.91-3.75l-2.54-1.13-1.34-2.14c-.91-1.46-2.52-2.35-4.24-2.35h-1.64c-.93-1.25-2.41-2-4-2h-5.19l-1.43-1.83c-.98-1.25-2.45-1.92-3.94-1.92-.8,0-1.62.19-2.37.6l-1.36.73c-.25-1.78-1.44-3.29-3.12-3.96l-11.55-4.55c.55-.58.95-1.27,1.17-2.04l1.54-5.27c.38-1.3.22-2.71-.46-3.89-.67-1.18-1.8-2.03-3.12-2.37l-2.85-.72c-.4-.1-.81-.15-1.22-.15-.27,0-.55.02-.82.07l-.21.03-.29-1.3.16-.26c.99-1.65.94-3.73-.13-5.34l-1.21-1.82c-.93-1.4-2.5-2.23-4.16-2.23-.18,0-.37.01-.55.03l-2.12.24c-.88.1-1.72.43-2.43.96-.48-.96-1.26-1.75-2.24-2.24l-2.58-1.29c-.21-.11-.43-.2-.66-.27l-3.36-1.12c-.51-.17-1.04-.25-1.58-.25-.71,0-1.41.15-2.07.45l-3.02,1.38-1.23-1.22c-.96-.96-2.24-1.46-3.53-1.46-.89,0-1.79.24-2.59.72h0c-.2.12-.38.26-.56.4-.67-.66-1.51-1.14-2.46-1.34l-1.76-.38-2.22-2.78c-.97-1.22-2.42-1.88-3.91-1.88-.57,0-1.15.1-1.71.3l-.08-.13c-.42-.7-1.01-1.29-1.71-1.71l-5.94-3.57-.27-1.88,1.75-6.97c.17-.69.2-1.41.07-2.11l-.78-4.31.87-2.61c.57-1.7.18-3.58-1.02-4.91-.96-1.07-2.32-1.67-3.73-1.67-.35,0-.7.04-1.04.11l-.8.17-1.54-2.84c-.61-1.12-1.61-1.95-2.8-2.35-.12-1.49-.89-2.86-2.13-3.72-.45-.31-.94-.54-1.45-.69-.15-.46-.36-.9-.63-1.3l.26-1.05c.47-1.89-.2-3.88-1.71-5.1l-.52-2.87c-.36-1.98-1.87-3.55-3.84-3.99l-2.05-.45c-.77-.72-1.74-1.18-2.76-1.32l-.34-.74c.91-.25,1.74-.74,2.38-1.45l2.59-2.88c1.33-1.48,1.66-3.61.83-5.42l-1.05-2.31.55-.48c1.05-.91,1.67-2.22,1.71-3.6.05-1.39-.48-2.73-1.47-3.71l-1.32-1.32v-1.07l7.18-8.08c1.72-1.31,2.41-3.6,1.67-5.67l4.82-4.81c1.29-1.29,1.77-3.17,1.27-4.91l-.4-1.41,3.68-15.21c.12-.51.16-1.03.12-1.55.74.4,1.56.62,2.4.62.3,0,.6-.03.89-.08l3.85-.7c.22.03.43.04.65.04.91,0,1.81-.25,2.6-.73,1.16-.7,1.98-1.85,2.28-3.17l1.52-6.7,10.54-3.37c.76-.24,1.45-.66,2.01-1.23l3.71-3.71c1.23-1.23,1.73-3,1.33-4.69-.4-1.69-1.64-3.05-3.29-3.59l-3.42-1.14-2.2-7.69c-.52-1.83-2.04-3.21-3.92-3.55l-2.99-.54-4.04-5.27c-.46-.6-1.06-1.09-1.74-1.43l-1.51-.75c-.7-.35-1.46-.52-2.23-.52-.53,0-1.06.08-1.58.26l-3.83,1.27c-.19-.17-.38-.34-.59-.49l-2.99-1.99s0,0,0,0l-1.45-.97s-.1-.07-.15-.1c-.29-.19-.6-.33-.92-.44l7.02-1.95c.6-.16,1.18-.43,1.69-.81,0,0,0,0,0,0,.4-.3.76-.66,1.05-1.06l2.96-3.96c.98-1.31,1.26-3.02.74-4.57-.52-1.55-1.76-2.76-3.34-3.22l-2.49-.73h0s-3.7-1.09-3.7-1.09l-2.29-5.45.42-1.12.86-.86,2.91.53c.3.05.6.08.9.08,2.37,0,4.48-1.69,4.91-4.11.14-.78.07-1.55-.13-2.26l.11-.11c.38-.38.7-.82.94-1.31l.96-1.93c.14.01.28.03.42.03.21,0,.41-.01.62-.04l2.33-.29,8.24,3.15c.58.22,1.18.33,1.78.33.84,0,1.67-.21,2.42-.63,1.29-.71,2.2-1.96,2.48-3.41l.11-.55c.1-.52.12-1.06.06-1.59l-.38-3.06c-.08-.65-.29-1.28-.62-1.86l-1.4-2.46c-.43-.75-1.04-1.37-1.77-1.81l-1.42-.85-2.43-3.8c-.92-1.44-2.51-2.31-4.21-2.31h-.57l-1.93-1.94-4.13-10.07v-4.21c0-1.57-.74-3.05-2-4l-3.77-2.83.61-3.61c.19-1.16-.02-2.34-.62-3.36l-2.24-3.82,2.1-3,3.3-.9c1.61-.44,2.9-1.66,3.43-3.25l1.31-3.94c.81-2.44-.36-5.1-2.71-6.15l-.9-.4v-1.85c0-.71-.15-1.41-.44-2.05l-3.5-7.77c-.81-1.81-2.61-2.95-4.56-2.95-.17,0-.34,0-.51.03l-1.92.2-3.89-4.22,3.25-5.05,3.54-2.75c.78-.61,1.36-1.43,1.67-2.37l1.09-3.28,6.68-7.52c1.15-1.3,1.55-3.1,1.05-4.76l-.49-1.65,1.71-.86c.59-.3,1.12-.71,1.55-1.22l1.92-2.24c1.42,0,2.76-.61,3.71-1.66.95-1.06,1.4-2.47,1.25-3.88l-.1-.9c-.1-.91-.45-1.77-1-2.5l-.21-.27c1.51-1.08,2.33-2.92,2.03-4.82l-.29-1.87.89-1.56c.8-1.4.88-3.1.21-4.56l1.8-5.01c.44-1.24.38-2.6-.17-3.79l-2.33-5.04v-1.28l.75-.6c1.04-.83,1.71-2.04,1.86-3.36l.57-5.17,16.78,4.09c.39.1.79.14,1.18.14.83,0,1.65-.21,2.39-.61l3.26-1.77c1.61-.88,2.61-2.56,2.61-4.39v-7.5l3.23-1.8s.03-.02.05-.03l1.57-.9c2.11-1.21,3.05-3.76,2.22-6.05l-.85-2.33,1.3-2.07,2.74-.46c2.39-.4,4.14-2.44,4.18-4.86l5.43-3.25c1.09-.65,1.89-1.7,2.24-2.92l.18-.65c.61-2.14-.27-4.43-2.16-5.61l-.11-.07.57-.76c1.02-1.36,1.27-3.15.68-4.75l-.55-1.48,3.3-4.78c.58-.84.89-1.83.89-2.84v-.34l2.16-1.35c.87-.54,1.56-1.34,1.96-2.29l.68-1.59c.6-1.42.52-3.04-.23-4.39l-3.95-7.11c-.53-.95-1.35-1.7-2.34-2.14l-2.64-1.17-.91-3.33,2.28-3.59c.78-1.22.98-2.72.57-4.11l-.78-2.62,3.31-3.97c1.02-1.23,1.4-2.86,1.01-4.41l-.99-3.98.53-1.41c.8-2.13.06-4.54-1.81-5.85l-2.4-1.69-.32-4.45c-.12-1.66-1.05-3.15-2.49-3.98l-.85-.49c-.77-.45-1.63-.67-2.49-.67-1.02,0-2.05.31-2.91.94l-.7.5-3.78-2.84c-.87-.65-1.92-1-3-1-.14,0-.28,0-.42.02l-4.19.35-2.82-1.75-1.25-2.09c-.72-1.2-1.9-2.04-3.26-2.33-.34-.07-.69-.11-1.03-.11-1.03,0-2.04.32-2.89.92l-8.86,6.28-3.87-.64-1.06-1.85c-.02-.97-.33-1.92-.88-2.73.1-.18.2-.37.28-.56l.34-.84c.66-1.65.39-3.52-.7-4.93l-1.89-2.43c-.85-1.09-2.11-1.78-3.48-1.91l-2.41-.23-.19-1.71c-.11-1.03-.55-2-1.23-2.77l-2.84-3.19v-5.21l.73-2.53c.23-.81.26-1.67.07-2.49l-.41-1.82c-.52-2.28-2.54-3.9-4.88-3.9h-3.02l-.63-.21c-.52-.17-1.05-.26-1.58-.26-1.74,0-3.4.91-4.31,2.47l-1.91,3.26-2.82.64c-.81.18-1.56.56-2.18,1.11l-2.89,2.52c-.77.67-1.32,1.57-1.57,2.56l-.67,2.69-3.09,3.95-1.76-2.64c-.48-.72-1.14-1.31-1.92-1.7l-1.22-.61c-.7-.35-1.47-.53-2.24-.53-.77,0-1.53.18-2.23.53l-.43.22-4.09.37-7.64-5.83-1.8-1.51.59-2.18c.57-2.08-.26-4.28-2.05-5.48l-.46-.31c-.83-.55-1.8-.84-2.77-.84-.44,0-.88.06-1.31.17l-3.24.88c-1.38.37-2.53,1.32-3.16,2.59l-.73,1.47c-.26-.04-.53-.07-.79-.07-1.26,0-2.49.48-3.43,1.37l-10.47-3.35c-.49-.16-1.01-.24-1.52-.24-.25,0-.51.02-.76.06l-4.68.72c-1.47.23-2.76,1.09-3.53,2.37l-.42.7c-.56.94-.8,2.03-.68,3.12l.27,2.47-2.03,2.03-4.13.32c-1.68.13-3.17,1.09-3.98,2.55l-.88.29c-1.43.48-2.57,1.57-3.11,2.99l-.59,1.57-5.31,1.06c-1.07.21-2.04.77-2.76,1.59l-.44.5-.67-.29c-.64-.28-1.31-.41-1.97-.41-.93,0-1.83.27-2.61.75-.24-.03-.48-.06-.72-.06-1.39,0-2.77.57-3.76,1.7l-.87.99c-.49-.16-1-.24-1.5-.24-1.62,0-3.2.78-4.16,2.23l-.99,1.48-2.84.71-2.05-.73c-.12-.73-.39-1.45-.85-2.09-.98-1.37-2.51-2.09-4.07-2.09-1.01,0-2.02.3-2.9.93l-.35.25-.03-.03c-.9-.74-2.03-1.15-3.19-1.15h0c-.88,0-1.71.24-2.45.65-.13.04-.26.07-.39.12l-1.94.83c-.23-.07-.46-.1-.69-.1-1.05,0-2.02.66-2.37,1.71l-.07.22c-.71-.37-1.49-.57-2.3-.57-.45,0-.9.08-1.34.21l-2.6-1.73c-.82-.55-1.79-.84-2.77-.84h0c-.45,0-.89.07-1.31.19-.19-.42-.44-.82-.76-1.18-.06-.51-.2-1.02-.42-1.5l-1.8-3.85.07-.03c1.03-.52,1.85-1.38,2.32-2.43l1.22-2.75c.49-1.1.56-2.34.21-3.5l-1.33-4.35,4-5.07c.87-1.11,1.24-2.53,1-3.92l-.12-.71c-.24-1.43-1.09-2.69-2.33-3.44l-7.37-4.49-2.18-4.36.4-.93c.77-1.79.43-3.87-.87-5.33l-2.61-2.9c-.35-.39-.76-.72-1.21-.98l.65-1.55c.84-2.03.27-4.36-1.42-5.76l-3.25-2.7.7-2.1c.35-1.03.35-2.15,0-3.18l-1.14-3.39c-.63-1.87-2.29-3.18-4.2-3.38l-.23-.13c.69-1.2.87-2.65.45-3.99l-.36-3.62c-.13-1.34-.8-2.57-1.86-3.41l-3.35-2.67c-.89-.71-1.99-1.09-3.12-1.09-.12,0-.24,0-.36.01l-3.64.26-.1-.88,1.43-1.2c.71-.59,1.24-1.37,1.53-2.25l1.75-5.24s0-.01,0-.02c.54-1.51.33-3.19-.58-4.52-.93-1.36-2.48-2.18-4.13-2.18h-5.64c-.54,0-1.07.09-1.58.26l-3.23,1.08s-.04.01-.05.02l-1.07-2.78c-.25-.65-.63-1.24-1.13-1.73l-5.64-5.65c-.11-.12-.25-.2-.37-.31.08-.36.14-.73.14-1.11v-2.46c0-1.04-.33-2.06-.93-2.91l-1.25-1.75,1.97-4.9c.65-1.62.41-3.47-.64-4.86l-5.43-7.23,1.87-2.13c.41-.47.74-1.02.95-1.61l1.99-5.58c1.4-.88,2.29-2.41,2.33-4.1.05-2.04-1.15-3.92-3.03-4.72l-3.17-1.36-2.82-3.87c-.62-.85-1.47-1.47-2.44-1.79l.96-6c.18-1.16-.05-2.35-.65-3.36l-2.22-3.7-.9-10.83c-.06-.71-.27-1.41-.62-2.03l-3.48-6.19,1.73-2.61c.54-.82.84-1.78.84-2.77v-5.15l2.75-5.91c.62-1.33.62-2.87,0-4.2l-1.99-4.32c-.61-1.32-1.77-2.32-3.17-2.72l-4.92-1.4-1.91-3.18c-.72-1.2-1.92-2.05-3.3-2.33l-2.25-.46c-.31-.06-.62-.09-.92-.09-.17-.34-.36-.66-.61-.96l-2.93-3.52.71-3.29c.28-1.3.03-2.66-.7-3.77-.72-1.11-1.86-1.9-3.16-2.17l-6.28-1.32-5.71-5.27-6.73-12.1,3.24-8.11c.52-1.31.45-2.74-.12-3.97l.16-.07c1.22-.52,2.18-1.51,2.67-2.74l5.21-13.02c.47-1.17.48-2.48.02-3.66l-3.91-10.15,3.06-1.94c.95-.6,1.66-1.5,2.04-2.56l2.17-6.16,3.28-.3c.84-.08,1.64-.36,2.33-.83l1.56-1.04c1.1-.74,1.86-1.88,2.12-3.17l2.67-13.35c.63-.96.92-2.11.8-3.26-.1-1.03-.53-1.99-1.2-2.76l3.82-3.11c1.89-1.54,2.38-4.2,1.23-6.29l1.53-2.19,5.91,1.84c.48.15.98.23,1.49.23h13.25c.41,0,.82-.05,1.21-.15l.1-.02c1.87-.47,3.31-1.97,3.69-3.87l.57-2.84,4.02-5.23c.75-.98,1.12-2.2,1.02-3.43l-.37-4.78,2.29-4.19c.46-.84.67-1.78.6-2.73l-.35-5.25c-.12-1.77-1.17-3.35-2.76-4.14l-4.02-2.01.89-4.78c.32-1.69-.26-3.42-1.51-4.58l-5.36-4.98-.24-1.22.66-2.98c.28-1.26.06-2.57-.6-3.67l-.06-.1c-.92-1.51-2.55-2.41-4.28-2.41-.02,0-.04,0-.07,0l-.46-1.28c-.43-1.2-1.31-2.17-2.42-2.75,0-.22-.02-.45-.05-.67l-.63-4.4.37-.45c1.21-1.5,1.45-3.56.62-5.3-.77-1.6-2.32-2.67-4.06-2.82l-.12-.04-.38-.96c.29-.15.57-.33.83-.54,1.5-1.22,2.16-3.2,1.69-5.08l-.54-2.19c-.11-.45-.28-.87-.51-1.27l-3.23-5.65c-.71-1.23-1.9-2.11-3.29-2.41l-12.34-2.65-5.99-4.28c-.72-.52-1.57-.83-2.45-.91l-3.96-.36-7.59-7.14c-.35-.33-.75-.61-1.19-.83l-8.48-4.25c-.65-.33-1.35-.5-2.06-.53l-1.58-2.35c-.72-1.07-1.82-1.82-3.07-2.1l-2.87-.64-8.2-7.03.26-.31c.88-1.06,1.28-2.44,1.11-3.81l-.19-1.5c-.21-1.66-1.23-3.11-2.73-3.86l-.33-.17c-.03-.25-.09-.5-.16-.75.59-1.09.75-2.38.44-3.61.17-.15.36-.28.51-.46,1-1.09,1.45-2.57,1.26-4.03,1.43-1.94,1.27-4.63-.38-6.39l.66-2.65c.52-2.08-.34-4.23-2.09-5.38,0-.53-.09-1.06-.27-1.56l.27-2.71c.09-.95-.09-1.89-.5-2.72l.17-.41c.43-1.07.47-2.25.13-3.35l-1.86-5.93,2.78-3.81c.56-.77.89-1.69.95-2.64,1.22-.93,2-2.39,2-3.99v-5.15l.69-.91c.41-.55.7-1.17.86-1.84l1.87-7.82c.15-.61.17-1.23.09-1.82.49-.34.92-.78,1.26-1.3l1.08-1.63c1.67-.1,3.18-1.03,4.03-2.48l4.38-7.56,1.45-.73c1.11-.56,1.97-1.51,2.42-2.68l6.07-15.85c.07-.19.13-.38.18-.58l.65-2.59c.38-1.53.02-3.15-.98-4.37l-9.7-11.9-1.3-11.29c-.14-1.21-.72-2.33-1.63-3.15l-3.91-3.51c-.45-.4-.96-.72-1.52-.93l-10.28-4.03-6.68-10.68c-.47-.75-1.13-1.37-1.92-1.78l-8.34-4.38c-.73-.38-1.53-.57-2.32-.57-.1,0-.2.02-.3.02-.42-.84-1.07-1.56-1.9-2.05l-3.85-2.3c-.63-.38-1.34-.61-2.07-.69l-3.32-.33-6.05-8.49c-.94-1.32-2.45-2.1-4.07-2.1h-10.9l-.46-.31-4.97-7.67c-.32-.49-.72-.93-1.2-1.28l-8.86-6.64-1.5-7.52,6.09-4.31c1.33-.94,2.11-2.46,2.11-4.08v-.29c0-1.08-.35-2.14-1-3l-5.28-7.04c-.24-.32-.52-.61-.83-.86l-4.92-4.04-6.74-10.78c-.66-1.05-1.68-1.82-2.87-2.16l-1.07-.31c-.45-.13-.91-.19-1.37-.19-1.3,0-2.58.51-3.53,1.46l-1.91,1.9-5.93,1.2c-1.04.21-2,.75-2.71,1.54l-3.72,4.09-12.91.43c-1.27.04-2.48.57-3.37,1.47l-2.34,2.34c-.56.56-.95,1.24-1.19,1.96-.34.05-.68.13-1.02.25h-10.81c-1.41,0-2.75.59-3.7,1.64l-3.64,4c-.72.79-1.16,1.78-1.27,2.84l-.81,7.75-7.62,7.18h-3.81c-.91,0-1.8.25-2.58.71l-2.94,1.77-10.49-8.3-4.37-4.82-1.22-6.87c-.2-1.15-.8-2.19-1.69-2.94l-11.78-9.97c-.58-.49-1.27-.85-2.02-1.03l-2.47-.62c-.4-.1-.81-.15-1.21-.15-.77,0-1.53.18-2.23.53l-8.76,4.37-7.03.89-5.65-1.75c-.43-.13-.88-.21-1.33-.22l-16.09-.47s-.1,0-.15,0c-.59,0-1.17.1-1.72.31l-13.69,5.02-6.26-2.09c-.51-.17-1.04-.26-1.58-.26h-.67c-.54,0-1.07.09-1.58.26l-1.58.52c-1.26.42-2.3,1.32-2.89,2.51l-6.29,12.58c-.26.53-.43,1.1-.5,1.69l-.39,3.53c-.07.65-.02,1.3.16,1.93l.64,2.23c.28.96.84,1.82,1.61,2.47l4.84,4.04.15.46v.67l-3.34,3.72c-.66.73-1.08,1.65-1.23,2.62l-.26,1.77c-.15,1.06.05,2.12.53,3.04,0,0,0,0,0,0-2.08.2-3.89,1.69-4.39,3.84l-2.01,8.75-5.31,7.42-12.31-6.57-3.26-5.81-1.88-17.42c-.15-1.36-.84-2.6-1.92-3.43l-12.96-9.96c-.87-.67-1.95-1.04-3.05-1.04h0c-2.14,0-4.04,1.36-4.73,3.39-.1.3-.17.61-.21.93l-.72.54c-.34.25-.64.55-.9.88l-1.23,1.54c-.71.89-1.1,1.99-1.1,3.12v14.06l-4.93,12.35c-.2-.03-.41-.06-.62-.06-1.23,0-2.45.45-3.42,1.35l-5.17,4.85c-.72-.83-1.71-1.43-2.87-1.64l-2.12-.37c-.29-.05-.59-.08-.87-.08-2.37,0-4.46,1.69-4.91,4.09-.32.34-.59.73-.81,1.16l-3,5.98-5.98,2.99c-1.37.68-2.27,1.92-2.6,3.3h-4.25c-.7-1.26-1.93-2.21-3.44-2.5l-1.99-.37c-.31-.06-.62-.09-.93-.09-1.51,0-2.91.69-3.84,1.82l-1-.19-6.07-5.65c-.49-.45-1.06-.8-1.68-1.03l-8.08-2.97-3.85-7.68c-.85-1.69-2.58-2.76-4.47-2.76h-2.05l-3.61-2.9-1.74-9.56c-.12-.66-.37-1.29-.74-1.85l-9.03-13.78c-.19-.29-.4-.55-.65-.79l-4.54-4.54c-.34-.34-.72-.62-1.14-.85l-4.57-2.49c-.73-.4-1.56-.61-2.39-.61h-5.26c-1.32,0-2.59.52-3.53,1.46l-1.2,1.2c-1.25,1.24-1.75,3.05-1.32,4.76l.99,3.92-4.07,13.98c-.3,1.03-.26,2.14.12,3.15l1,2.67c.25.67.64,1.28,1.15,1.79l13.44,13.43.33,3.69-1.99,2.65-9.01,3.16-9.63.92-5.8-2.07-4.7-5.98c-.46-.58-1.03-1.05-1.69-1.38l-9.83-4.92c-.7-.35-1.46-.53-2.24-.53-.09,0-.17,0-.26,0l-8.11.43c-.86.05-1.7.31-2.42.78l-4.45,2.84-7.28.91h-2.9l-12.33-4.57c-.56-.21-1.15-.31-1.74-.31-.37,0-.74.04-1.1.12l-14.38,3.26c-.39.09-.77.22-1.13.4l-2.24,1.12c-.86.43-1.55,1.09-2.04,1.89-.31-.06-.62-.09-.93-.09-.52,0-1.04.08-1.54.24l-16.69,5.42h-9.86l-10.59-1.94-7.57-1.88c-.4-.1-.8-.15-1.21-.15-.14,0-.28,0-.41.02l-11.11.92c-.54.04-1.06.18-1.56.39l-6.3,2.71c-.37.16-.72.36-1.05.61l-13.93,10.56-4.48,1.74c-.96.37-1.75,1.03-2.31,1.85-.6-.25-1.24-.39-1.9-.39h-6.05l-4.41-2.01c-.65-.3-1.36-.45-2.07-.45-.1,0-.2,0-.29,0l-7.31.43-15.79-6.04c-.57-.22-1.18-.33-1.79-.33-.29,0-.58.02-.86.07l-10.49,1.84c-.34.06-.67.15-.99.28l-11.73,4.68-18.12-.93c-.09,0-.17,0-.26,0-.91,0-1.8.25-2.57.71l-9.08,5.45c-.27.16-.53.36-.77.57l-4.13,3.72c-.83.74-1.38,1.74-1.58,2.84l-1.24,6.98c-.14.79-.09,1.59.15,2.35l1.71,5.53v1.76l-1.7,5.51-5.6,5.17c-.5.46-.9,1.02-1.18,1.64l-5.61,12.61c-.21.46-.34.95-.4,1.46l-1.35,11.68c-.13,1.1.11,2.2.68,3.15l5.11,8.5-1.84,15.58c-.03.29-.03.58-.01.87-1.3,1.27-1.88,3.19-1.3,5.05l3.21,10.35.7,7.33c.16,1.72,1.19,3.13,2.6,3.9l-.24,2.13-3.06,7.8c-1.13.01-2.26.4-3.19,1.2l-2.01,1.72-2.83,1.18-26.21-16.88-1.61-2.68,2.41-53.18.24-2.49c.18-1.87-.71-3.58-2.16-4.57l.3-3.17c.04-.45.02-.9-.06-1.35l-4.88-27.38c-.04-.24-.1-.48-.18-.71l-5.29-15.84c-.18-.53-.45-1.03-.79-1.48l-2.84-3.66c-.48-.61-1.09-1.11-1.79-1.45l-11.77-5.64c-.18-.09-.37-.16-.56-.23l-3.93-1.32c-.51-.17-1.05-.26-1.6-.26h-13.34c-.88,0-1.74.23-2.5.67l-2.07,1.19c-1.02.59-1.8,1.52-2.21,2.63l-10.09,27.88-12.75,25.49c-.4.8-.56,1.66-.52,2.5-.62.32-1.18.76-1.62,1.32l-4.97,6.2-15.92,10.3c-.86.56-1.53,1.37-1.92,2.32l-.27.66-2.58.77-2.38-2.08c-.76-.66-1.69-1.08-2.69-1.2l-14.55-1.76-14.08-21.11c-.15-.22-.33-.41-.51-.61.41-.73.65-1.56.65-2.44v-1.09c0-.49-.07-.97-.21-1.44l-2.81-9.39c-.08-.28-.19-.54-.32-.8l-15.16-30.32-2.66-22.21c-.12-1.03-.56-1.94-1.2-2.67.37-.9.48-1.9.28-2.87l-.82-4.12.48-13.48,5.31-28.04,4.2-4.58,7.98.8c.17.02.33.02.5.02.82,0,1.64-.2,2.37-.6l4.6-2.47c1.44-.77,2.41-2.2,2.6-3.82l.77-6.56c.09-.73,0-1.47-.22-2.16l-1.67-5.02c-.17-.51-.42-.99-.75-1.42l-.89-1.18c-.47-.62-1.07-1.12-1.76-1.47l-3.93-1.96c-.64-.32-1.35-.5-2.07-.53l-13.88-.46c-.06,0-.11,0-.17,0-.6,0-1.19.11-1.75.32l-7.16,2.68c-.43.16-.84.38-1.21.66l-8.84,6.52-9.13,2.74-38.16-2.93-7.79-2.29-12.59-9.79-6.82-15.91c-.51-1.19-1.46-2.13-2.65-2.64l-8.31-3.51c-.25-.11-.51-.19-.78-.26l-11.21-2.68c-.38-.09-.78-.14-1.16-.14-.93,0-1.85.26-2.65.76l-2.42,1.51-9.3-.44c-.08,0-.16,0-.24,0-.45,0-.89.06-1.32.18l-10.19,2.79c-.47.13-.93.33-1.34.59l-2.02,1.27c-1.61,1.01-2.5,2.85-2.31,4.74,0,.07.03.13.04.2-.09.07-.2.12-.29.2l-.45.37-.51-.34c-.83-.55-1.79-.83-2.76-.83-.46,0-.92.06-1.37.19l-5.48,1.57-32.34-.49-16.57-2.92c-.23-.04-.47-.07-.71-.07l-14.71-.47c-.05,0-.11,0-.16,0-.63,0-1.26.12-1.85.36l-4.21,1.68-18.46,2.36c-.84.11-1.65.43-2.33.94l-8.19,6.04-15.2-1.38-2.06-.79c-.58-.22-1.19-.33-1.79-.33-.45,0-.9.08-1.33.2-.59-.9-1.46-1.61-2.52-1.98l-23.36-8.25c-.54-.19-1.1-.29-1.66-.29-.2,0-.4.01-.61.04l-23.23,2.84-11.32-4.28c-.57-.22-1.17-.32-1.77-.32-.08,0-.16.01-.25.01-.26-.48-.6-.92-1.01-1.3l-14.22-12.86c-.11-.1-.23-.2-.36-.29l-5.46-4.09c-.43-.32-.91-.57-1.42-.74l-5.23-1.74c-.46-.15-.94-.24-1.43-.25l-15.76-.48c-.05,0-.1,0-.15,0-.33,0-.66.03-.98.1l-9.09,1.81-3.72-1.14c-.49-.15-.98-.22-1.47-.22-.46,0-.9.07-1.34.19-.62-.68-1.41-1.21-2.32-1.46l-9.15-2.56c-.44-.12-.89-.18-1.35-.18-.09,0-.18,0-.26,0l-8.66.46c-.49.03-.98.12-1.44.29l-9.92,3.6-17.62-4.17c-.38-.09-.76-.13-1.15-.13-.41,0-.81.05-1.21.15l-10.8,2.7-8.07-1.75c-.35-.08-.71-.11-1.06-.11-.53,0-1.05.08-1.55.25-.6-.6-1.36-1.05-2.23-1.29l-4.19-1.11-1.23-3.06c-.41-1.01-1.13-1.86-2.07-2.42l-6.42-3.85-18.87-20.33c-.42-.45-.92-.82-1.48-1.09l-15.94-7.76c-.7-.34-1.45-.5-2.18-.5-.26,0-.52.03-.78.07-.57-.8-1.37-1.43-2.31-1.78l-3.97-1.49c-.57-.21-1.16-.32-1.75-.32-.72,0-1.43.15-2.09.46l-5.19,2.39c-.4.18-.77.42-1.11.7l-5.05,4.21h-6.95c-.82,0-1.64.2-2.36.59l-13.07,7.01-6.5,1.39-5.51.85c-1.22.19-2.33.82-3.11,1.78l-3.75,4.6c-.13.15-.24.32-.35.48l-9.05,14.29-2.01,1.12c-.96.54-1.67,1.36-2.1,2.3-1.01.02-2.01.35-2.84.96l-6.33,4.66c-.5.37-.93.83-1.26,1.35l-8.79,13.88-9.09,3.63c-.81.32-1.49.87-2.02,1.53-.33-.07-.67-.12-1.01-.12-.5,0-1.01.08-1.51.23l-16.71,5.28-26.84,4.89c-.54.1-1.05.28-1.53.55l-3.98,2.2c-.18.1-.35.21-.52.33l-10.59,7.7-7.63,3.05c-1.38.55-2.4,1.68-2.86,3.02-.68-.33-1.43-.51-2.19-.51-.68,0-1.38.14-2.03.43l-1.6.71c-.56.25-1.06.6-1.49,1.03l-7.51,7.49-.48.04c-1.45.11-2.72.85-3.56,1.94-.92-.95-2.19-1.54-3.59-1.54h-2.25c-.64,0-1.27.12-1.86.36l-3.54,1.42c-1.21.48-2.18,1.41-2.71,2.6l-1.27,2.83-8.87,5.33c-.57.34-1.07.8-1.46,1.33l-4.82,6.58-1.18.58-6.5,1.22c-1.4.26-2.61,1.1-3.35,2.32l-14.6,24.02c-.32.52-.54,1.1-.65,1.7l-.42,2.32c-.13.74-.08,1.49.11,2.2-.5.45-.92,1-1.21,1.64l-11.68,25.68c-.05.1-.09.21-.13.32l-8.85,23.63c-.06.17-.12.34-.16.51l-4.36,16.97-4.59,7.79-12.96,10.37c-.73.58-1.25,1.34-1.56,2.17-.9.09-1.77.42-2.5.98l-9.75,7.4-10,4.29-7.28,2.43-33.66,4.94c-.13.02-.27.04-.4.08l-25.45,5.89c-.33.08-.65.19-.96.33l-11.43,5.24c-.37.17-.72.39-1.04.64l-9.54,7.63c-.23.18-.44.38-.63.6l-3.11,3.54c-.31.35-.56.73-.76,1.15l-4.62,9.72-5.76,5.31c-.49.45-.88.99-1.16,1.6l-12.65,27.71-2.05,2.87-2.68,1.57c-.84.49-1.51,1.22-1.94,2.07-.02,0-.05,0-.07,0-.93,0-1.86.26-2.69.79l-10.29,6.58c-.52.33-.97.75-1.33,1.25l-6.6,8.95c-.13.17-.24.35-.34.53l-14.24,25.54c-.15.27-.28.56-.38.86l-2.23,6.7-9.93,9.92-20.6,14.72c-1.14.81-1.85,2.05-2.03,3.38-1.26.04-2.48.54-3.39,1.45l-3.32,3.32c-.25.25-.48.53-.67.84l-4.19,6.53c-.18.28-.33.57-.45.88l-14.78,37.91c-.11.27-.19.55-.24.84l-2.76,13.8c-.23,1.15-.05,2.34.51,3.37l4.85,8.91-1.24,1.98c-.63,1-.88,2.19-.71,3.36l.31,2.15-2.84,14.2c-.09.43-.11.87-.09,1.3l.96,14.89c.02.28.06.56.13.83l2.33,9.82c.13.56.36,1.08.67,1.56l4.77,7.37-2.34,20.13-3.01,6.01-17.31,11.22-20.34.46c-1.12.03-2.19.42-3.05,1.13l-4.57,3.74c-.3.25-.57.53-.81.83l-12.63,16.52c-.18.24-.34.49-.47.75l-7.57,14.72c-.62,1.21-.72,2.61-.29,3.89.29.84.79,1.58,1.44,2.15-.29.08-.57.19-.85.33-1.49.75-2.51,2.19-2.71,3.85l-.59,4.7-5.97,13.31-6.85,3.22c-1.02.48-1.85,1.29-2.35,2.29l-2.28,4.57-3.09,1.93-9.24,2.31-8.32-.44c-.09,0-.18,0-.26,0-.9,0-1.79.25-2.57.71l-3.38,2.03c-1.13.68-1.95,1.78-2.28,3.07l-1.14,4.52c-.14.55-.18,1.11-.13,1.68l1.44,15.68-1.3,7.31c-.19,1.06-.03,2.15.45,3.11l6.48,12.95,4.28,16.63c.18.71.52,1.38.99,1.94l1.34,1.61-3.65,14.57c-.06.23-.1.46-.12.69l-1.67,15.9c-.08.79.04,1.56.31,2.29-.48.51-.86,1.12-1.09,1.82l-1.71,5.13-17.09,16.14c-.52.49-.93,1.09-1.2,1.75l-5.16,12.65c-.15.38-.26.78-.32,1.18l-1.42,9.96-3.22,10.6-9.02,7.67c-.51.44-.93.97-1.23,1.57l-5.42,10.83c-.38.75-.55,1.59-.51,2.43-.66.02-1.31.17-1.93.46l-12.44,5.78-25.69-5.7c-.36-.08-.72-.12-1.08-.12-.18,0-.37.01-.55.03l-3.15.35c-1.13.13-2.18.63-2.98,1.43l-4.63,4.61c-.28.28-.53.6-.74.94l-6.71,11.03c-.12.2-.23.41-.32.63l-4.11,9.59c-.39.9-.5,1.9-.32,2.87l.79,4.34c.08.46.23.91.44,1.32l.11.23c.28.57.67,1.08,1.14,1.5l13.51,12.11,2.24,10.31c.11.49.29.96.53,1.4l5.94,10.5-.43,7.82-11.59,26.06-7.8,7.35c-.39.37-.72.8-.98,1.28l-3.31,6.2-15.96,4.55c-.63.18-1.21.48-1.73.88l-8.6,6.8c-.59.47-1.07,1.06-1.39,1.73l-9.98,20.45c-.28.58-.45,1.21-.5,1.86l-.44,6.65-2.7,8.12-18.37,17.88c-.19.18-.36.37-.51.58l-6.93,9.23-3.85,1.41c-1.2.44-2.19,1.32-2.76,2.46l-.54,1.07-4.07,1.01c-1.05.26-1.99.86-2.68,1.7l-14.22,17.55c-.23.28-.42.59-.59.91l-4.75,9.48c-.15.3-.27.62-.36.95l-11.78,44.2-14.47,21.71-5.83,4.02c-.35.24-.67.53-.95.86l-2.58,3.01c-.24.29-.46.6-.63.93l-4.66,8.88-16.97,16.58c-1.19,1.17-1.68,2.81-1.43,4.38h-1.23c-1.06,0-2.09.34-2.94.96l-9.7,7.06c-.73.53-1.3,1.25-1.66,2.08l-2.48,5.79-2.46,2.04-3.93,2.62-8.49,1.34c-.58.09-1.15.29-1.66.58l-11.86,6.64-12.65,4.23c-.74.25-1.4.66-1.95,1.21l-9.67,9.67-9.6,3.65c-.49.18-.94.44-1.34.77l-12.88,10.3c-.47.38-.86.83-1.16,1.33-.1,0-.2-.02-.3-.02-.45,0-.9.06-1.34.18l-15.55,4.32c-.63.17-1.22.47-1.73.87l-12.77,9.94-9.35,3.74c-.41.16-.79.38-1.14.64l-23.51,17.64c-.15.12-.3.24-.44.37l-19.06,18.08c-.34.33-.64.7-.88,1.11l-6.51,11.15-.87.58-12.69,5.86-28.78,9.92c-.11.04-.22.08-.33.13l-22.39,9.54c-1.07.45-1.94,1.27-2.48,2.3l-6.14,11.84-18.16,7.45c-.58.24-1.11.58-1.56,1.01l-11.39,10.91c-.29.27-.54.58-.75.92l-11.88,18.55c-.52.8-.79,1.74-.79,2.7v6.79c0,.54.09,1.07.25,1.58l1.26,3.8c.13.38.3.74.51,1.08l4.65,7.44,1.44,4.81c.54,1.8,2.04,3.14,3.89,3.48.3.05.6.08.9.08,1.54,0,3.01-.71,3.97-1.96l3.09-4.04,8.69-4.58c.39-.2.75-.46,1.07-.76l6.73-6.24c.09-.09.18-.18.27-.27l6.06-6.55,4.9-2.67c.3-.16.58-.36.84-.58l12.52-10.61,5.34-2.66,20.9-2.37,8.06,3.13,21.01,17.19c.78.64,1.74,1.03,2.75,1.11l4.53.38c.14.01.28.02.42.02.67,0,1.34-.14,1.97-.4l12.72-5.44,14.07,2.34h.02c.52.18,1.05.27,1.59.27.6,0,1.18-.12,1.74-.33.61.95,1.53,1.69,2.63,2.05l8.54,2.84,12.15,7.01c.76.44,1.62.67,2.5.67h8.26c.66,0,1.31-.13,1.92-.38l17.18-7.16c.36-.15.7-.34,1.02-.57l26.89-19.56,6.86-2.57,1.3.43,5.34,9.34c.24.41.53.79.88,1.12l12.02,11.54c.2.2.43.38.66.53l1.06.72c.32.21.65.39,1.01.53l5.9,2.26,8.22,6.06c.87.64,1.91.98,2.97.98.41,0,.82-.05,1.22-.15l4.37-1.1c.54-.14,1.05-.36,1.52-.66l13.77-9.02,3.34-.91c.85-.23,1.59-.68,2.19-1.27.56.21,1.15.32,1.75.32.3,0,.6-.03.89-.08l1.64-.3,5.77,1.77,23.63,8.86c.38.14.77.24,1.17.28l28.66,3.35c.19.02.39.03.58.03.96,0,1.9-.27,2.71-.8l6.2-3.99,5.07-3.23,11.65-2.23,3.05,1.7,3.94,7.87.92,12.4c.05.72.26,1.42.61,2.05l1.18,2.13c.69,1.24,1.87,2.13,3.25,2.45.37.09.75.13,1.12.13,1.02,0,2.02-.31,2.87-.9l9.02-6.32,7.11-2.84,9.48-3.31c2.23-.78,3.61-3.01,3.31-5.36l-2.18-17.07.44-3.99,3.89-13.6c.06-.21.11-.42.14-.63l1.4-9.33,5.57-9.44c.38-.64.59-1.34.66-2.05.87-.21,1.69-.65,2.35-1.3l1.17-1.17,7.2-.85,7.23,1.8,15.11,8.51c.69.39,1.46.61,2.25.64l9.18.38c.07,0,.14,0,.21,0,.74,0,1.45-.18,2.09-.48.58.45,1.25.79,2.01.95l11.59,2.49,16.85,8.66c.4.2.82.35,1.26.45l8.44,1.77,17.41,16.93,4.17,4.16c.78.78,1.78,1.24,2.82,1.39.15,1.05.62,2.05,1.4,2.83l3.99,3.99c.73.73,1.66,1.21,2.67,1.39l7.67,1.35c.08.01.16.03.23.04l3.36.43c.21.03.42.04.63.04.43,0,.86-.06,1.28-.17l32.84-8.69,8.3,1.74,2.39,2.05c.78.67,1.74,1.08,2.76,1.18l2.44.24,3.44,15.49c.21.93.67,1.78,1.35,2.45l2.71,2.71c.94.94,2.21,1.46,3.54,1.46h6.81c.74,0,1.47-.16,2.13-.48l7.71-3.63,8.4-1.86,13.57.47c.06,0,.12,0,.17,0,.42,0,.84-.06,1.24-.17.58.65,1.3,1.16,2.14,1.44l2.81.93,11.19,10.73c.47.45,1.02.81,1.63,1.04l12.58,4.94c.59.23,1.21.35,1.83.35.58,0,1.16-.1,1.71-.3l4.39-1.6,9.64-2.76,2.29.98c.53.23,1.09.36,1.67.39l7.27.43c.1,0,.2,0,.29,0,.85,0,1.7-.22,2.44-.64l11.48-6.44c.4-.22.77-.5,1.09-.83l11.09-11.09s.06-.07.09-.11c.48.18.99.32,1.51.34l6.5.32,9.63,6.11c.81.51,1.74.78,2.68.78.24,0,.47-.02.71-.05l5.44-.78c.74-.11,1.44-.37,2.06-.79l4.59-3.05,17.35,4.68,11.56,3.25c.44.12.9.19,1.35.19.69,0,1.38-.14,2.02-.43l2.71-1.2c1.16-.51,2.08-1.45,2.57-2.61l.16-.37c.88.7,1.98,1.1,3.12,1.1.43,0,.86-.06,1.29-.17l.45-.12,6.64.84,6.6,7.04,5.04,10.99c.36.78.91,1.46,1.6,1.96l5.82,4.23c.87.63,1.9.96,2.94.96.6,0,1.2-.11,1.78-.33.42,1.85,1.87,3.36,3.81,3.78l7.87,1.71,5.04,4.11s.04.03.06.05l8.95,7.07c.61.48,1.33.82,2.09.97l18.7,3.84c.17.04.35.06.53.08l25.28,2.43,23.26,12.81c.74.41,1.57.62,2.41.62.18,0,.37-.01.55-.03l3.1-.34c.71-.08,1.4-.31,2.02-.68l5.65-3.38c.22-.13.43-.29.63-.45.32.14.66.25,1.01.32l5.14.96,6.34,7.6c.73.88,1.74,1.48,2.86,1.7l.73.15c.32.06.65.1.98.1.77,0,1.53-.18,2.23-.53l3.97-1.98c.89-.45,1.62-1.15,2.1-1.99.39.1.78.16,1.19.16.16,0,.32,0,.48-.02h12.46l21.17,16.92,3.53,11.93c.3,1.01.9,1.89,1.73,2.53l3.51,2.72c.42.33.89.58,1.39.76l.46.16c-.47,1.2-.48,2.56.05,3.78l.33.78c.42.99,1.16,1.82,2.09,2.36l8.45,4.9.97.97-.37,4.05-5.36,15.65c-.62,1.8-.16,3.8,1.19,5.15l2.82,2.83c.95.95,2.23,1.47,3.54,1.47.38,0,.76-.04,1.14-.13l6.67-1.57,8.2.91,2.61,1.11,2.91,3.65c.85,1.07,2.1,1.74,3.46,1.86l3.69.33c.15.01.3.02.45.02.74,0,1.47-.16,2.14-.48l8.11-3.85c.91-.43,1.67-1.13,2.17-1.99l14.61-24.99,5.09-1.95,5.13.79,4.07,3.68c.47.42,1.01.75,1.6.97l6.97,2.61,3.57,3.9c.98,1.07,2.33,1.62,3.69,1.62.99,0,1.98-.29,2.84-.89l11.8-8.15c.36.24.75.46,1.17.6l7.64,2.55c.39.13.79.21,1.2.24l5.5.42,3.64,2.54,1.14,6.09c.21,1.14.82,2.18,1.71,2.92l1.94,1.62c.42.35.89.63,1.4.82l5.05,1.95c.58.22,1.19.34,1.8.34.73,0,1.46-.16,2.13-.48l6.61-3.12,10.8,3.46c.5.16,1.01.24,1.53.24.46,0,.93-.06,1.38-.19l3.35-.96c.67,1.06,1.74,1.88,3.06,2.19l6.47,1.53c.38.09.77.13,1.15.13,1.58,0,3.09-.75,4.05-2.06l3.98-5.49c.62-.85.95-1.88.95-2.94v-6.44l1.5-.45s0,0,0,0l5.55-1.66,4.68-.68s0,0,0,0l.15-.02,5.94,3.57s0,0,0,0l.08.05c.18,2.6,2.34,4.65,4.99,4.65,1.11,0,2.12-.37,2.95-.98.05,1.23.55,2.43,1.45,3.33l1.77,4.97c.62,1.74,2.14,2.99,3.97,3.27l7.68,1.15c.25.04.49.06.74.06.71,0,1.41-.15,2.06-.45l4.08-1.85c.9-.41,1.66-1.07,2.18-1.91l1.44-2.31,3.91-.35c.48-.04.95-.16,1.4-.34l6.35-2.54,10,2.91,1.76,4.59c.37.97,1.04,1.8,1.9,2.37l.16.11c.82.54,1.78.83,2.77.83h.83c.5,0,1.01-.08,1.49-.23l6.76-2.11,4.75,1.98c.53.22,1.09.35,1.66.38l8.44.44c.09,0,.18,0,.26,0,.65,0,1.3-.13,1.9-.38l7.51-3.09c.55-.23,1.05-.55,1.49-.95l5.13-4.74,5.5,1.61c.47.14.94.2,1.41.2,1.08,0,2.13-.35,2.99-1,.81.54,1.77.83,2.75.83.18,0,.37-.01.55-.03l3.15-.35c.92-.1,1.79-.45,2.52-1.02l7.98-6.19,4.74-1.11,1.91,1.68c.92.8,2.09,1.24,3.29,1.24.2,0,.4-.01.6-.04,1.41-.17,2.68-.93,3.5-2.1l5.61-8.01c.48-.68.77-1.47.86-2.27.03,0,.07,0,.1,0l5.67,2.84c.58.29,1.21.47,1.86.52l4.78.37,4.25,6.57c.71,1.11,1.83,1.88,3.12,2.17l2.08.46c.36.08.72.12,1.08.12,1.31,0,2.58-.52,3.53-1.46l.44-.44c1.26-1.25,1.75-3.08,1.31-4.8l-2.06-7.91,1.96-.71,7.92,7.92,1.65,6.15-2.14,6.4-1.9,2.44c-1.05,1.35-1.34,3.15-.76,4.76.55,1.53,1.8,2.68,3.35,3.12-.11,1.31.3,2.62,1.15,3.64l3.4,4.03c.7.83,1.65,1.41,2.71,1.65l9.75,2.23,12.36,7.32.24.71-2.97,2.96c-.58.58-1.02,1.3-1.26,2.09l-3.05,10.06c-.3.99-.29,2.05.04,3.03l1.8,5.4c.52,1.57,1.78,2.78,3.37,3.23l5.06,1.44,2.71,2.71c.98.98,2.26,1.46,3.54,1.46.76,0,1.52-.17,2.22-.52l2.13,2.39c.42.47.92.85,1.47,1.14l1.15.58c.51.26,1.07.43,1.64.5l6.79.85c.21.03.41.04.62.04.73,0,1.45-.16,2.12-.47l5.05-2.36,1.82,2.34c.61.78,1.43,1.37,2.38,1.68l1.65.55c.51.17,1.04.25,1.58.25.27,0,.55-.02.82-.07l.1-.02c.06.12.12.24.2.35l1.34,3.59c.06.17.13.33.21.49l.72,1.44c.85,1.69,2.58,2.76,4.47,2.76h2.05l.93,1.5c.92,1.47,2.53,2.35,4.24,2.35.15,0,.3,0,.45-.02l3.46-.31,5.43,1.55c.45.13.91.19,1.37.19.94,0,1.87-.27,2.69-.78l3.79-2.41,3.48.35,4.74,3.57.11.42-3.33,8.76c-.47,1.23-.43,2.6.1,3.81l1.2,2.7c.45,1.01,1.22,1.84,2.19,2.37l4.3,2.32c.44.24.91.4,1.39.49.16.61.43,1.19.82,1.71l.09.13c.97,1.3,2.47,2.01,4.01,2.01.13,0,.25,0,.38-.01.23.78.65,1.51,1.25,2.11l.67.67c.87.88,2.04,1.4,3.28,1.47l4.75.25c-.6,2.1.24,4.4,2.16,5.61l1.39.87,8.84,15.36v6.83c0,.63.12,1.26.36,1.85l1.48,3.72c.41,1.02,1.14,1.88,2.08,2.44l.31.18-.43,2.33c-.33,1.78.33,3.59,1.71,4.75l1.4,1.17,4.4,10.01c.41.94,1.09,1.69,1.91,2.21-.07.58-.03,1.17.1,1.74l-2.37,7.09c-.45,1.35-.31,2.83.4,4.07l3.15,5.5.4,5.18-2.35,4.02c-.78.08-1.54.34-2.22.77-1.28.83-2.12,2.19-2.27,3.71v.14c-.1.84.03,1.69.37,2.47l.49,1.13c.79,1.85,2.61,3.03,4.59,3.03.17,0,.33,0,.5-.02l7.14-.71,6.11,4.59-.24,2.13c-.14,1.22.18,2.45.9,3.45l.5.7c-.35-.08-.71-.11-1.06-.11-1.75,0-3.42.92-4.33,2.5-1.21,2.1-.74,4.77,1.12,6.33l1.38,1.16c-.11.96.05,1.94.49,2.83.55,1.09,1.46,1.93,2.56,2.38l.75,1.7c.81,1.82,2.61,2.97,4.57,2.97.11,0,.21,0,.32-.01l-.09,1.61c-.09,1.55.55,3.05,1.71,4.06l-2.23-.22c-.17-.02-.33-.02-.5-.02-1.13,0-2.23.38-3.12,1.1l-1.33,1.06c-.43.34-.8.76-1.09,1.22l-2.52,3.96c-.89,1.39-1.03,3.13-.38,4.65l.39.91c.69,1.61,2.16,2.74,3.89,2.99h.01c.07.24.15.48.25.71l-.79,2.63c-.09.3-.14.6-.18.9-.39.13-.76.3-1.12.53l-.63.31-.04-.02c-.82-.52-1.75-.78-2.68-.78-.88,0-1.77.23-2.55.7-1.62.96-2.56,2.75-2.44,4.63l.09,1.29-1.51,1.52c-1.41,1.41-1.84,3.53-1.1,5.38l.67,1.67c-.93.2-1.8.66-2.5,1.35l-.99.99c-1.48,1.48-1.88,3.72-1.01,5.62l1.4,3.06c.45.98,1.2,1.79,2.15,2.31l8.04,4.39-.05.09c-.86,1.5-.88,3.35-.05,4.87l1.65,3.03-2.48,3.1c-1.31,1.64-1.46,3.91-.38,5.71l1.72,2.86v1.92l-4.8,2.74c-1.19.68-2.04,1.81-2.37,3.13l-1.49,5.98c-.29,1.16-.15,2.38.38,3.45l.76,1.52c.39.78.97,1.44,1.7,1.92l.15,1.2c.23,1.87,1.5,3.44,3.25,4.08l-.34,1.52c-1.02,1.12-1.49,2.65-1.24,4.17.3,1.84,1.59,3.35,3.36,3.94l.06.02.37,1.5c.36,1.46,1.37,2.68,2.73,3.32l5.1,2.38c.22.94.7,1.79,1.38,2.45l-.1.29c-.36,1.08-.34,2.25.05,3.32l.09.24c.51,1.36,1.58,2.44,2.94,2.95.07.03.15.04.23.06.13.95.54,1.86,1.19,2.6l1.33,1.52c.97,1.11,2.36,1.71,3.76,1.71.28,0,.56-.02.84-.07.36.55.82,1.04,1.37,1.41l.49,2.45c.27,1.36,1.09,2.53,2.24,3.25l-1.7,6.12c-.29,1.05-.23,2.17.17,3.19l1.12,2.81c-.58-.23-1.19-.34-1.81-.34-.59,0-1.17.1-1.74.31-1.36.5-2.43,1.57-2.94,2.92l-.15.39c-.39,1.03-.43,2.16-.11,3.22l.82,2.71c-.7.91-1.07,2.06-1.03,3.24.05,1.38.68,2.66,1.69,3.56-.21.45-.36.93-.43,1.43l-.86,6c-.27,1.14-.13,2.34.39,3.39l2.04,4.1c.05.09.1.17.15.26-.45.65-.74,1.4-.85,2.21l-.2,1.63c-.09.69-.03,1.39.17,2.05l1.13,3.78-.54,1.91-5.2,3.19-4.33.39c-.75.07-1.48.3-2.12.69l-.73.44c-1.51.9-2.43,2.53-2.43,4.29v.47c0,.88.23,1.74.67,2.49-.71.63-1.22,1.45-1.48,2.37l-.8.8c-1.14.81-1.89,2.06-2.06,3.45-.12.99.05,1.97.48,2.84l-.71,2.62c-.57,2.07.26,4.27,2.04,5.47l2.38,1.59,1.65,3.52c.69,1.48,2.06,2.52,3.66,2.8.29.05.58.08.86.08.43,0,.85-.06,1.26-.16l-.15.92c-.34,2.06.63,4.12,2.45,5.16l1.29.74,2.22,4.43c.56,1.13,1.53,2,2.71,2.44l1.2.45c.04,1.04.4,2.06,1.06,2.9.95,1.21,2.4,1.92,3.94,1.92h.61l3.18,1.6c.71.36,1.48.53,2.25.53s1.59-.19,2.32-.57c1.23-.64,2.12-1.76,2.49-3.07l1.69-1.2c.31.74.79,1.4,1.43,1.92l.84.69c-.08.67-.03,1.36.17,2.03.13.46.33.89.58,1.28l-.05.05c-1.16,1.16-1.68,2.83-1.38,4.44.3,1.62,1.38,2.99,2.88,3.66l1.19.53c-.22,1.35.13,2.73.95,3.81-.47.6-.81,1.3-.97,2.07-.35,1.65.16,3.37,1.36,4.57l3.39,3.39-.86,3.46c-.35,1.39-.08,2.86.73,4.04.58.85,1.4,1.48,2.34,1.84l1.56,2.18c.11,1.47.87,2.76,1.98,3.6l-.14.28c-.71,1.42-.7,3.09.01,4.5.7,1.38,2.01,2.36,3.53,2.65l.34.09c.49,2.29,2.52,3.95,4.89,3.95h.04l.24,2.7c.07.75.3,1.48.69,2.12l4.01,6.69c.2.34.45.66.73.94l.34.35c.55.56,1.23.98,1.98,1.23l3.56,1.18-.02.21c-.14,1.41.32,2.81,1.27,3.85.53.59,1.19,1.03,1.91,1.31,0,.36.03.73.11,1.09.18.85.57,1.62,1.13,2.26l-.18.81c-.55,2.44.78,4.9,3.12,5.78l7.55,2.83c-.08.9.08,1.83.51,2.68l.08.16c-.14.87-.05,1.78.28,2.62.49,1.25,1.45,2.25,2.68,2.78l3.03,1.3c.97,1.15,2.38,1.77,3.82,1.77.47,0,.94-.07,1.4-.2l2.38.6c.4.1.81.15,1.21.15.67,0,1.34-.14,1.97-.4l1.44-.62,1.52,1.08.21,1.67c.19,1.55,1.1,2.93,2.46,3.71l7.45,4.31c.53.3,1.1.51,1.69.6v.03c0,.98.29,1.95.83,2.76l.47.7-1.33,1.33c-.94.94-1.46,2.21-1.46,3.53v7.05l-2.16,7.36c-.29.98-.27,2.02.05,2.99l1.13,3.4-3.44,2.11c-1.14.7-1.95,1.82-2.25,3.11-.31,1.3-.08,2.66.62,3.79l1.09,1.75c.42.68,1.01,1.25,1.7,1.66l12.09,7.16.11.39c.62,2.17,2.6,3.63,4.8,3.63.15,0,.3,0,.46-.02l1.56,2.32c-.11.89.02,1.8.39,2.63.4.9,1.04,1.65,1.85,2.17l1.27,2.85-.8,2.4c-.49,1.46-.27,3.07.58,4.35l1.95,2.93c.26,1.52,1.22,2.84,2.59,3.56-.05.86.13,1.73.52,2.52l1.84,3.69c.85,1.69,2.58,2.76,4.47,2.76h4.05l3.98,3.13c.84.66,1.86,1.02,2.91,1.06.04.09.08.18.12.26l.53,2.91c.43,2.38,2.5,4.11,4.92,4.11h4.55l1.89,2.69c.94,1.34,2.47,2.12,4.09,2.12.19,0,.39-.01.58-.03l5.64-.66.17.2-9.57,8.75c-.23.21-.44.44-.62.69l-7.21,9.61c-.16.21-.3.44-.42.67l-.7,1.33c-.86,1.64-.75,3.62.29,5.15.45.65,1.03,1.17,1.7,1.55-.43,1.23-.39,2.6.2,3.83l.67,2.02-1.52,4.19-4.66,4.65c-1.15,1.14-1.67,2.77-1.4,4.37l.15.88c.15.89.54,1.7,1.1,2.37-.31.5-.55,1.04-.67,1.63l-.37,1.83c-.47,2.32.75,4.65,2.92,5.59l.11.05v1.22c-.13.27-.24.55-.33.83l-5.68,1.78c-.97.3-1.82.89-2.44,1.69l-2.25,2.88c-.92,1.18-1.27,2.71-.94,4.17l.28,1.24-7.22,2.7c-1.35.51-2.42,1.57-2.93,2.93-.51,1.35-.41,2.86.28,4.13l1.8,3.34v5.08c0,.98.29,1.95.84,2.77l1.52,2.29-2.28,1.51c-1.12.74-1.89,1.9-2.14,3.21l-.51-.3c-.77-.45-1.65-.69-2.53-.69-.43,0-.87.06-1.29.17-1.29.35-2.39,1.2-3.05,2.36l-.38.67-.44.26c-1.77,1.05-2.71,3.09-2.37,5.12l.06.37-.36.61c-.82,1.37-.93,3.06-.3,4.53l2.17,5.07-.31,1.55c-.75,2.06-.07,4.39,1.7,5.72l.8.6-1.52,1.36c-.94.83-1.53,1.99-1.65,3.24l-.28,2.76c-.15,1.49.38,2.97,1.44,4.03l1.4,1.4-2.38,4.74c-.65,1.3-.7,2.81-.15,4.15.56,1.34,1.67,2.37,3.04,2.83l.07.02c.33,1.4,1.27,2.63,2.63,3.31l.24.12.09.28-1.61,1.07c-1.3.87-2.12,2.3-2.22,3.86-.09,1.56.55,3.08,1.75,4.1l.4.34c.66,1.51,2.03,2.62,3.69,2.92l2.1.38,7.06,7.9c.95,1.07,2.31,1.67,3.73,1.67.14,0,.28,0,.43-.02l3.85-.33,1.78,1.19c.64.43,1.37.7,2.13.81l6.88.92s.1.01.15.02l12.98,1.34c.17.02.34.03.51.03,1.51,0,2.95-.68,3.9-1.88l.54-.68c.71-.89,1.1-1.99,1.1-3.12v-2.34l2.11-.7c.9-.3,1.69-.85,2.29-1.58l3.29-4.02h3.02l.37.28c.88.66,1.93,1,3.01,1,.41,0,.82-.05,1.22-.15l2.58-.65c.6-.15,1.14-.41,1.62-.74.49.26,1.03.44,1.6.52l7.58,1.09,1.5,1.79c.52.62,1.18,1.1,1.93,1.41l4.89,2.01c.61.25,1.26.38,1.9.38.84,0,1.68-.21,2.43-.63,1.33-.74,2.25-2.04,2.5-3.55l.09-.56.59.71c.96,1.15,2.38,1.8,3.84,1.8.36,0,.72-.04,1.08-.12l1.76-.39c1.47-.33,2.72-1.3,3.39-2.65l.66-1.33.44.06,1.14,2.51c.82,1.8,2.61,2.92,4.55,2.92.25,0,.51-.02.76-.06l4.04-.62c.64-.1,1.25-.32,1.8-.65l1.3-.78c.96-.57,1.71-1.46,2.11-2.5l1.92-5,2-1.5c1.66-1.24,2.38-3.38,1.81-5.37l-.09-.31c1.02-1.18,1.44-2.78,1.1-4.34-.24-1.08-.82-2.02-1.62-2.71l.45-.34,4.25,2.44c.77.44,1.63.66,2.49.66.91,0,1.82-.25,2.62-.74l.32-.2-.63,2.66c-.42,1.77.16,3.62,1.5,4.84.94.85,2.14,1.3,3.37,1.3.53,0,1.07-.09,1.59-.26l1.89-.63.32.06.21.93c.51,2.29,2.54,3.92,4.88,3.92h1.67c.59,1.66,2,2.88,3.73,3.23l2.25.45.58,1.39c.63,1.51,1.95,2.61,3.54,2.96.36.08.72.12,1.08.12,1.24,0,2.45-.46,3.38-1.31l2.53-2.32,9.34.46c.21.03.42.04.63.04,1.17,0,2.31-.41,3.22-1.17.38-.32.68-.69.94-1.09.57.22,1.18.36,1.8.36.36,0,.72-.04,1.08-.12l2.39-.53,16.07-1.42.66.35c.75.4,1.56.59,2.36.59,1.34,0,2.66-.54,3.62-1.55.84-.89,1.31-2.02,1.37-3.18l1.29.97c.89.67,1.95,1,3.01,1,1.21,0,2.42-.44,3.36-1.3l2.9-2.64,1.23.36,2.34,4.14c.77,1.36,2.13,2.28,3.68,2.5.23.03.45.05.68.05,1.01,0,2-.32,2.83-.89-.02,1.84.96,3.55,2.6,4.44l2.69,1.46,3.2,5.7c.9,1.6,2.58,2.55,4.36,2.55.36,0,.72-.04,1.08-.12l1.67-.37c1.18-.26,2.23-.95,2.95-1.92l2.36-3.21c.18,1.03.68,1.99,1.44,2.74.94.91,2.19,1.42,3.49,1.42.18,0,.37-.01.55-.03l.46-.05c1.13-.13,2.18-.63,2.99-1.43l2.42-2.43c.7.35,1.46.53,2.24.53.45,0,.9-.06,1.35-.18l9.8-2.74,1.21,1.31c.96,1.04,2.3,1.61,3.67,1.61.51,0,1.03-.08,1.53-.24,1.85-.59,3.19-2.21,3.43-4.14l.18-1.46c.11-.85,0-1.7-.32-2.48l2.04.37,1.06,1.7c-.61,1.11-.77,2.4-.47,3.61-1.47,1.85-1.45,4.52.12,6.35l.95,1.11c.41,2.1,2.14,3.76,4.34,4.01.19.02.38.03.57.03,2.33,0,4.38-1.62,4.88-3.95l.52-2.42,2.68-.36c1.48-.2,2.79-1.04,3.58-2.31.65-1.05.89-2.29.69-3.49l2.26-.82c.71.36,1.48.53,2.25.53,1.36,0,2.71-.56,3.69-1.62l2.77-3.02c.53.19,1.1.29,1.67.29.17,0,.33,0,.5-.02l2.98-.3,3.12,2.86c.93.85,2.13,1.31,3.38,1.31.14,0,.28,0,.42-.02.71-.06,1.39-.27,2-.61l.38,1.74c.19.86.59,1.65,1.18,2.3l3.69,4.07-.02.11c-.29,1.45.08,2.96,1,4.11l2.34,2.91c.96,1.19,2.39,1.87,3.9,1.87.21,0,.41-.01.62-.04h.05c.52,1.7,1.93,3.04,3.72,3.43.59,1.38,1.79,2.45,3.28,2.86.1.03.2.04.3.06.36,1.27,1.2,2.36,2.37,3.01l1.04.58c.83,1.68,2.56,2.77,4.46,2.77l2.73,1.36c.57.28,1.17.44,1.78.5l.07.17c.3.75.77,1.38,1.35,1.88l-.05.07c-.58.93-.84,2.02-.74,3.11l.2,2.16c-.99.28-1.87.87-2.52,1.69l-.65.82c-.7.88-1.09,1.98-1.09,3.11v3.41l-4.7,1.82c-.3.11-.58.26-.85.42l-3.52,2.2c-.32.2-.62.44-.89.71l-7.21,7.21c-.7.7-1.17,1.59-1.37,2.56l-1,5.02c-.19.94-.1,1.9.23,2.76l-.61.5c-.8.67-1.38,1.57-1.64,2.58l-2.08,7.92c-.25.94-.21,1.93.09,2.85l1.03,3.08-.16.66c-.33,1.34-.1,2.75.65,3.91.74,1.16,1.93,1.96,3.29,2.21l4.01.75.61,1.41c-.09.38-.14.78-.14,1.17l-2.68,1.46c-1.27.69-2.18,1.91-2.49,3.33-.29,1.32-.03,2.7.71,3.82l-.4,1.08c-.75.11-1.48.39-2.12.83-1.35.93-2.16,2.47-2.16,4.11v4.76l-.49.66c-.65.87-1,1.92-1,3v3.24c0,1.11.37,2.19,1.05,3.07l1.51,1.95c-.46.61-.78,1.33-.92,2.1-.18.98-.06,1.99.33,2.9-.78.66-1.35,1.54-1.61,2.54-.36,1.36-.13,2.82.63,4v4.45l-3.44,4.59-2.24.45c-2.13.43-3.74,2.19-3.98,4.35l-.1.88c-1.36.45-2.47,1.46-3.03,2.79l-.75,1.76c-.26.62-.4,1.29-.4,1.96v5.15c0,2.39,1.68,4.42,3.98,4.89v1.54c0,1.61.78,3.13,2.09,4.07l1.31.94-.25,4.19c-.08,1.44.46,2.85,1.49,3.86.94.92,2.2,1.43,3.5,1.43.13,0,.25,0,.38-.01l1.91-.15.51,1.02c.32.65.78,1.22,1.35,1.67l1.15.92v6.62c0,.87.23,1.73.66,2.48l1.38,2.41c.35.6.81,1.13,1.37,1.54l8.65,6.38c.48.35,1.02.62,1.59.78l.8.23c.46.13.92.19,1.38.19,2,0,3.86-1.2,4.64-3.14l1.66-4.13,2.06-.46c1.44-.32,2.67-1.26,3.35-2.57l5.76-11.06,2.01-2.03h.18c1.4,0,2.74-.59,3.68-1.62.95-1.03,1.42-2.41,1.3-3.81l-.23-2.7,4.07-13.09,17.19-9.75,6.32-.79c1.44-.18,2.74-.98,3.54-2.19l.93-1.4,5.13,3.76c.39.29.82.52,1.28.68l5.45,1.94.43,1.51c.28.99.86,1.87,1.67,2.52l9.42,7.61,1.44,2.88-.07.65c-.17,1.49.34,2.97,1.39,4.04.95.97,2.24,1.51,3.58,1.51.14,0,.28,0,.41-.02l2.14-.18c.64.28,1.33.42,2.01.42s1.33-.13,1.96-.4l.99.12c-.12,2.18,1.19,4.18,3.23,4.95.58.22,1.17.32,1.76.32,1.49,0,2.94-.67,3.9-1.88l5.58-6.5c.47-.55.81-1.19,1.01-1.88l.29-1.01,1.06,1.66c.93,1.46,2.54,2.31,4.21,2.31.42,0,.84-.05,1.26-.16,2.1-.55,3.6-2.38,3.73-4.54l.32-5.36,3.08-8.39,2.03-1.34c1.95-.64,3.29-2.42,3.42-4.42l.48-.62.5,1.1c.42.93,1.12,1.71,1.99,2.23l.38.23c.45.27.93.45,1.43.57.15.62.41,1.21.79,1.74l.48.67c.61.86,1.49,1.51,2.49,1.84l.22.07c.04.59.19,1.18.45,1.73.14.29.3.57.48.83-1.42,1.13-2.12,2.95-1.81,4.74l.04.26c.24,1.44,1.1,2.7,2.35,3.45l5.6,3.36c.52.31,1.1.53,1.69.63l-1.36,1.92c-.85,1.19-1.13,2.69-.78,4.11l1.56,6.27-1.48,6.69c-.44,1.98.36,4.03,2.03,5.19-.34,1.39-.08,2.87.75,4.06l6.75,9.69v.88c0,1.08.35,2.14,1,3l4.98,6.63c.02,1.51.72,2.94,1.91,3.87l5.29,4.15c.8.62,1.76.99,2.77,1.05l-.3.6-.12.04c-2.19.73-3.6,2.86-3.41,5.16l.26,3.07-4.15,5.81-4.12,2.36c-1.2.69-2.07,1.84-2.38,3.19s-.06,2.77.71,3.92l1.31,1.97c.18.27.39.53.62.76l3.26,3.26c.7.7,1.59,1.18,2.56,1.37l5.61,1.12,4.13,7.45c.38.69.92,1.28,1.57,1.72l15.05,10.18c.84.57,1.82.86,2.8.86.91,0,1.81-.25,2.62-.74l4.64-2.85,5.5-.78c.84.56,1.81.85,2.79.85.89,0,1.77-.24,2.57-.71l.52-.31,4.72-.37c1.47-.12,2.82-.88,3.68-2.08l.75-1.05c1-1.41,1.21-3.23.54-4.82l.03-.35c.81.5,1.71.74,2.61.74,1.44,0,2.86-.62,3.85-1.81l.3-.36,1.56-.26.87.25c.11,1.31.72,2.56,1.79,3.45l1.14.95c.76,1.05,1.89,1.77,3.18,2,.29.05.59.08.88.08,1.15,0,2.28-.4,3.19-1.15l19.53-16.15c.1-.08.19-.17.28-.25l13.69-13.2,6.94-5.09,1.46-.32c1.65-.37,3-1.54,3.59-3.11.49-1.29.42-2.72-.17-3.94v-2.91l4.64-12.5,4.69-4.34c1.57-1.45,2.04-3.74,1.17-5.7l-.73-1.65.28-.47c.71-1.18.89-2.61.51-3.93l-.5-1.77c-.23-.82-.67-1.56-1.27-2.16l-1.61-1.61-2.68-8.06v-1.68h5.32c2.48,0,4.58-1.81,4.95-4.26l1.11-7.43,4.71-10.37,14.66-18.08,31.66-30.67,55.79-47.33,16.26-13.31,39.23-26.82,20.27-11.87,1.38-.55c1.91-.75,3.13-2.58,3.15-4.6.31-.1.61-.23.89-.39l11.7-6.75c.59-.34,1.1-.79,1.5-1.33l3.38-4.51c.63.8,1.49,1.39,2.48,1.69.47.14.96.21,1.45.21.86,0,1.72-.22,2.48-.66l9.74-5.57c1.41-.81,2.3-2.22,2.48-3.75.74-.09,1.45-.35,2.08-.75l66.81-42.74,9.4-2.45c1.41-.37,2.59-1.33,3.23-2.64s.68-2.83.11-4.17l-.33-.77,10.7-8.99,4.39-1.35c1.91-.59,3.28-2.25,3.5-4.23l.22-1.96,3.24-3.23,18.34-15.38,21.07-14.2c.32-.21.61-.46.87-.74l5.02-5.41c.4-.43.71-.93.93-1.45.64-.05,1.27-.21,1.88-.51l11.39-5.7,7.68-1.35c.57-.1,1.11-.3,1.61-.58l2.24-1.28c1.06-.61,1.87-1.59,2.26-2.75l.96-2.85.71-.53c1.2-.08,2.33-.6,3.19-1.45,1.99-1.07,3.04-3.37,2.49-5.6.15-1.56-.43-3.08-1.55-4.13v-.48c0-2.32-1.59-4.31-3.8-4.85l-.47-2.81,4.27-3.2c.67-.5,1.2-1.16,1.55-1.93l1.91-4.18c.41-.89.54-1.89.39-2.86l-1.27-8.01,1.01-2.34,26.89-23.96,18.95-12.93c.8-.54,1.41-1.3,1.78-2.17.93-.03,1.85-.31,2.66-.86l30.99-21.12,7.1-2.22c.66-.21,1.26-.54,1.78-.99l6.92-6,33.56-20.42c.83-.51,1.48-1.24,1.9-2.09.08,0,.16.02.25.02.83,0,1.67-.21,2.43-.63l44.02-24.5c.81-.45,1.47-1.11,1.91-1.9.11,0,.22.03.33.03.76,0,1.52-.17,2.23-.53l47.9-23.94,19.79-8.42,16.6-4.75,6.72,2.11c.91.78,2.07,1.21,3.26,1.21.36,0,.73-.04,1.09-.12,1.74-.39,3.14-1.68,3.67-3.37.6-1.37.55-2.91-.09-4.21l.33-.97c.37-1.1.35-2.29-.06-3.37l-.29-.77,2.75-.92c1.06-.35,1.97-1.05,2.58-1.97l.67-1c.99-1.49,1.11-3.4.31-5l-1.21-2.44c-.2-.4-.45-.76-.74-1.09h.04c.87.67,1.95,1.04,3.05,1.04.44,0,.88-.06,1.31-.18l2.34-.19c1.04-.09,2-.5,2.78-1.15.63.28,1.32.45,2.04.45.36,0,.72-.04,1.08-.12l1.72-.38,8.46,2.22,4.74,3.46,1.76,2.76-3.62,1.68c-1.62.75-2.72,2.32-2.87,4.1l-.54,6.25c-.14,1.6.5,3.16,1.71,4.21.92.8,2.08,1.22,3.27,1.22.16,0,.31,0,.47-.02l1.16.29c.76.42,1.6.63,2.43.63,1.25,0,2.49-.47,3.44-1.37l1.79-.8.12.28c.51,1.19,1.45,2.13,2.64,2.64l1.14.48c.63.27,1.29.4,1.96.4s1.29-.13,1.9-.38c1.13-.47,2.05-1.33,2.59-2.42l2.06-2.9,1.32-.79c1.15-.69,1.97-1.8,2.29-3.08l1.45-2.18,8.17-5.45,13.5-2.7,3.47,2.31c.94.85,2.14,1.29,3.36,1.29.76,0,1.52-.17,2.23-.52l2.99-1.49c1.81-.9,2.9-2.81,2.76-4.83l-.39-5.46,1.49-4.1,3.35-1.67c.97-.48,1.76-1.27,2.24-2.24l1.75-3.49c.83-1.65.68-3.63-.4-5.14-.93-1.31-2.42-2.08-4-2.1l-.59-.23-.33-4.9,6.38-6.75c.6.24,1.24.36,1.87.36.86,0,1.72-.22,2.5-.67,1.74-1.01,2.71-2.96,2.46-4.95l-.12-.93,2.91-1.45c1.8-.9,2.88-2.78,2.75-4.79l-.36-5.68,1.53-3.45c.69-1.56.53-3.34-.39-4.75,1.08-.65,1.9-1.69,2.25-2.96l.8-2.91,4.7-4.29,18.84-9.18,6.64-1.33,2.65.66.84,1.08c.97,1.25,2.44,1.94,3.95,1.94.59,0,1.19-.11,1.77-.32,1.66-.63,2.83-2.07,3.14-3.76l2.04-2.03,10.19-4.42,1.81.6c.52.17,1.05.26,1.58.26,1.57,0,3.08-.74,4.04-2.06l2.47-3.4,4.15-1.66,34.7-10.91,25.94-3.85c.99-.15,1.9-.58,2.64-1.26l.64-.59c.93,1.09,2.3,1.75,3.79,1.75h8.73l2.13,1.06c.18,1.1.73,2.13,1.57,2.9.93.85,2.13,1.3,3.36,1.3.36,0,.71-.04,1.07-.12l11.93-2.61.92.15c.55,1.28,1.63,2.3,3.01,2.75l.72.24c.51.17,1.04.25,1.57.25.16,0,.32,0,.47-.02l9.31-.89,5.51,2.36c.63.27,1.3.4,1.97.4.53,0,1.07-.09,1.58-.26l1.34-.45,2.2.63c.45.13.91.19,1.37.19.27,0,.55-.02.82-.07l.5-.08c.59,1.45,1.82,2.55,3.33,2.96.43.12.87.17,1.3.17,1.1,0,2.19-.37,3.08-1.06l1.2-.94,4.02-.36,2.58,1.47c.93.81,2.1,1.23,3.29,1.23.62,0,1.23-.11,1.82-.35l4.5-.64c.84,1.65,2.55,2.74,4.46,2.74.02,0,.04,0,.05,0l2.7.81-.26,3.38c-.12,1.6.53,3.17,1.76,4.2.91.77,2.06,1.18,3.22,1.18.41,0,.81-.05,1.22-.15l9.9-2.48c.35-.09.7-.22,1.02-.38l4.26-2.13,10.11-.44,1.8,1.28v2.38c0,1.41.6,2.76,1.65,3.71.92.84,2.12,1.29,3.35,1.29.17,0,.33,0,.5-.02l.92-.09,2.79,3.1-.33,1.23c-.39,1.43-.12,2.95.72,4.17s2.18,1.99,3.65,2.13l5.69.52v.2c0,2.76,2.24,5,5,5h1.34c1.24,0,2.44-.46,3.36-1.29l2.48-.83c1.73-.58,3-2.04,3.33-3.82l2.02-.5c.56-.14,1.09-.37,1.57-.69l5.95-3.97,6.95,3.27c.9.7,1.98,1.05,3.06,1.05.66,0,1.32-.13,1.94-.39l2.29.98c.68.32,1.41.48,2.14.48,1.11,0,2.21-.37,3.12-1.09l2.43-1.94,4.44-1.59c2.37-.85,3.74-3.33,3.2-5.79l-.22-.98.49-.49c1.73-.43,3.13-1.77,3.62-3.54l.24-.87c.4-1.49.1-3.08-.83-4.31l-.08-.11,1.01-5.07c.33-1.64-.19-3.33-1.37-4.51l-.65-.65-4.27-11.07,4.36-4.72c.76-.82,1.22-1.87,1.31-2.98l.22-2.67c.22-2.64-1.66-4.99-4.28-5.36l-3.91-.56c-.23-.03-.47-.05-.71-.05-.6,0-1.2.11-1.77.32l-.88.33-.72-2.58c-.27-.98-.84-1.83-1.59-2.47.32-.91.39-1.91.15-2.88l-2.25-9.01c1.43-.75,2.48-2.17,2.65-3.89l1.03-9.92,3.73-7.44h0s.54-1.08.54-1.08l2.63-2.85s0,0,0,0l.04-.04c.92.85,2.14,1.34,3.41,1.34.52,0,1.06-.08,1.58-.26.29-.1.56-.23.82-.37.19.02.38.04.57.04,1.21,0,2.41-.44,3.36-1.3l2.29-2.08.49.49c.96.96,2.24,1.46,3.54,1.46.82,0,1.64-.2,2.39-.61l3.18-1.73c.78-.42,1.43-1.04,1.89-1.8l9.39-15.5,7.78-6.41,8.33-2.49.11.08c.87.65,1.93,1,3,1,.3,0,.6-.03.89-.08l3.21-.58c-.53,1.33-.47,2.82.19,4.11.71,1.39,2.03,2.37,3.57,2.65l3.86.85c.86.63,1.89.95,2.94.95.36,0,.71-.04,1.07-.12l1.22.49c.89.78,2.04,1.22,3.24,1.24.02,0,.03,0,.05,0,1.41,0,2.75-.59,3.69-1.63l3.51-3.85,7.18-.84c.27.04.54.07.81.07,1.19,0,2.35-.42,3.27-1.22,1.27-1.1,1.9-2.75,1.69-4.42l-.09-.67c-.2-1.57-1.13-2.94-2.48-3.71-.04-.4-.13-.8-.28-1.19l-.71-2.84c-.32-1.27-1.12-2.37-2.24-3.05l-4.04-2.48.84-3.07,6.05-5.62,6.44-1.89,1.56,1.78-.19.58c-.45,1.34-.3,2.81.39,4.04l.27.48c.91,1.61,2.6,2.54,4.35,2.54.63,0,1.27-.12,1.89-.37.56.35,1.18.6,1.85.71.28.05.56.07.84.07.7,0,1.39-.15,2.03-.43.49.15.99.23,1.5.23.77,0,1.53-.18,2.23-.53,1.31-.65,2.27-1.85,2.62-3.27l.15-.61c.56-2.27-.52-4.57-2.51-5.62l.39-2.3c.33-1.95-.52-3.9-2.16-5l-1.85-1.23.16-1.26c.12-.98-.05-1.97-.48-2.83l.33-.78.42.59c.95,1.33,2.47,2.08,4.06,2.08.37,0,.75-.04,1.12-.13l2.83-.65c.67,1.16,1.79,2.01,3.11,2.34l.84.21c.27,1.29,1.05,2.46,2.22,3.2l4.74,3.01c.83,1.68,2.55,2.8,4.49,2.8h.54c1.64,0,3.17-.8,4.1-2.15.75-1.08,1.04-2.39.83-3.66.37-1.22.26-2.54-.31-3.68-.52-1.04-1.37-1.85-2.42-2.33h.02c.97-.49,1.76-1.28,2.24-2.25l.31-.63c.8.51,1.73.79,2.69.79.09,0,.18,0,.27,0l4.04.93c.05,1.95,1.23,3.72,3.07,4.49.62.26,1.28.39,1.93.39,1.47,0,2.91-.65,3.88-1.85l1.25-1.54c.91-1.13,1.29-2.59,1.04-4.02-.16-.92-.57-1.76-1.18-2.44v-.36l3.87-8.15,1.54-.66c1.79-.77,2.97-2.5,3.03-4.45.06-1.94-1.02-3.74-2.75-4.61l-2.84-4.05-.74-4.05.98-1.63c.61-.85.94-1.88.93-2.92l.89-2.07,2.24-.99,1.68,1.39c.93.77,2.06,1.15,3.19,1.15,1.44,0,2.86-.61,3.85-1.8l1.55-1.86,5.02,1.19c.38.09.77.13,1.15.13,1.86,0,3.61-1.04,4.47-2.77l1.76-3.54,5.42-3.33,3.42-.35c.81.54,1.77.83,2.76.83,1.33,0,2.6-.53,3.54-1.47l.9-.9c.87-.88,1.39-2.04,1.45-3.27l1.36-.51c1.32-.49,2.37-1.52,2.89-2.83l.08-.21,1.77-.36c2.21-.45,3.85-2.32,3.99-4.57l.31-4.69,2-2.33,5.89-1.68c.5-.14.97-.36,1.4-.65l3.69-2.46c.57-.38,1.06-.88,1.43-1.45l3.3-5.13,6.52,1.37,1.12,3.1-2.19,3.43c-.81,1.28-1.01,2.85-.53,4.29l.26.77c.51,1.51,1.71,2.69,3.23,3.17.49.16,1,.23,1.5.23,1.06,0,2.1-.33,2.97-.98l3.56-2.62,6.57.83,5.5,2.93-.59,2.94c-.68,1.62-.46,3.49.6,4.91.95,1.28,2.45,2.02,4.01,2.02.3,0,.6-.03.9-.08l.5-.09c.52.17,1.06.26,1.59.26,1.17,0,2.33-.41,3.26-1.21l1.48-1.27,5.23-.8c.73-.11,1.42-.38,2.03-.79l1.37-.92c1.01-.68,1.72-1.69,2.04-2.83l1.83-.46,1.01.17c.43.87,1.1,1.61,1.95,2.11.78.46,1.66.69,2.54.69.59,0,1.19-.1,1.75-.32l12.09-4.53c1.63-.61,2.82-2.02,3.15-3.72.31-1.58-.16-3.2-1.25-4.37l-4.29-6.86c-.69-1.1-1.77-1.89-3.03-2.2l-4.8-1.2c.02-1.06-.3-2.12-.93-2.99l-1.24-1.74.62-3.43c.24-1.31-.06-2.66-.82-3.75l-2.43-3.48v-.75c0-1.77-.94-3.41-2.47-4.31l-6.34-3.72c-.42-1.06-1.2-1.96-2.22-2.53-.75-.42-1.59-.63-2.44-.63-.69,0-1.38.14-2.03.43l-1.86.83c-.14-1.08-.62-2.09-1.38-2.87l-1.04-3.43c-.34-1.11-1.05-2.07-2.01-2.71l-2.07-1.38c.64-2.27-.41-4.73-2.58-5.81l-5.25-2.63c-.7-.35-1.46-.53-2.24-.53h-6.82l-.76-4.34c-.4-2.27-2.29-3.96-4.56-4.12l-.4-1.07,1.73-1.98c.99-1.13,1.41-2.64,1.17-4.12l-.09-.51c-.15-.92-.56-1.75-1.15-2.43.02-.02.04-.04.06-.06l2.47-2.87c.45-.52.78-1.13.98-1.79l1.44-4.69,3.75-1.02c.58-.16,1.12-.42,1.61-.76l1.68-1.21c.9-.65,1.54-1.56,1.86-2.58,1.61-.14,3.06-1.06,3.88-2.47l6.46-2.51c1.92-.75,3.19-2.6,3.19-4.66v-5.53h.01c2.58-.98,3.88-3.86,2.91-6.44h0s1.22-1.07,1.22-1.07c1.52-1.33,2.07-3.41,1.47-5.29l.34-1.2c.5-1.74.02-3.6-1.25-4.89l.67-.96c1.14-1.63,1.19-3.74.23-5.39.22-1.84-.6-3.62-2.05-4.66l1.61-4.84c.23-.71.31-1.45.22-2.19l-.25-1.99.51-.37c2.01-1.43,2.68-4.11,1.57-6.32l-.02-.03.99-.62c1.38-.86,2.25-2.34,2.34-3.96l.39-7.07,1.19-2.08c.64-1.12.82-2.45.51-3.7l-.03-.12,1.38-2.76c.84-1.69.66-3.72-.47-5.23l-1.86-2.48.74-.41c1.58-.88,2.56-2.55,2.56-4.36v-1.76c.92-.11,1.8-.47,2.53-1.06l.61-.49,5.57,1.39c.4.1.81.15,1.21.15,1.12,0,2.23-.38,3.12-1.1l1.24-1c.97-.47,1.75-1.24,2.25-2.19l1.64-1.64c1.25-1.25,1.75-3.06,1.32-4.77l-.42-1.64,3.23-6.05,12.5-7.33,1.1.79c.86.61,1.87.93,2.9.93.59,0,1.19-.1,1.76-.32l1.63-.61.57.32c.78.44,1.63.65,2.47.65,1.5,0,2.98-.68,3.95-1.93l4.11-5.3,3.03,2.33c.9.69,1.97,1.04,3.05,1.04s2.08-.32,2.97-.98l7.46-5.5c.56-.41,1.03-.94,1.38-1.54l1.41-2.46,1.15-.69c1.02-.61,1.79-1.57,2.16-2.7l.75-2.24s.08.02.12.03c.25.04.5.06.74.06,1.23,0,2.43-.46,3.35-1.29l3.29-2.98.42.21c.71.36,1.48.54,2.25.54.68,0,1.36-.14,2-.42l9.22-4.02,7.2,4.18c.77.45,1.64.67,2.51.67.77,0,1.54-.18,2.24-.53l1.82-.92c1.41-.71,2.38-2.02,2.67-3.52l4.96-4.95,4.81-1.61c.79-.27,1.5-.72,2.07-1.33l5.74-6.17,2.11-1.06c.58-.29,1.09-.7,1.51-1.18.43.12.89.19,1.35.19h2.36l1.16,1.46.8,1.33-.41,1.03c-.75,1.87-.29,3.93,1.02,5.31-.15,2.05.97,3.94,2.75,4.83l.54,1.35c.52,1.3,1.56,2.32,2.86,2.82.57.22,1.18.33,1.78.33.77,0,1.53-.18,2.23-.53l10.73-5.36c.89-.45,1.63-1.15,2.12-2.02l3.88-6.88,1.92-1.54,3.12-1.57,2.29.25c.85,1.68,2.59,2.74,4.46,2.74.36,0,.72-.04,1.08-.12l.74-.16.27.34c.95,1.19,2.39,1.88,3.9,1.88h4.19c.71,0,1.42-.15,2.07-.45l20.36-9.25,1.04.52c.71.35,1.47.53,2.24.53.93,0,1.86-.26,2.67-.77l8.63-5.46,2.75.27c.57,1.1,1.54,1.96,2.72,2.39.56.2,1.14.3,1.72.3.77,0,1.54-.18,2.24-.53l2.56-1.28c1.2-.6,2.11-1.67,2.52-2.95l3.18-9.96,4.3-.57c1.95-.26,3.57-1.64,4.13-3.52l.48-1.61c.4-1.35.22-2.81-.5-4.01-.68-1.14-1.79-1.95-3.07-2.27l-1.73-.65c.1-1.23-.27-2.46-1.03-3.45v-3.92l2.14-3.93.95-.17c1.51-.28,2.82-1.23,3.53-2.59.44-.83.62-1.75.56-2.67l5.48-5.87,9.1-.79c1.77-.15,3.32-1.23,4.08-2.83.83-1.75.59-3.8-.57-5.28l-.08-.55,5.73-1.35c.76-.18,1.46-.53,2.06-1.03l2.23-1.86c.37-.31.69-.66.96-1.06l1.18-1.77c.76-1.13,1.02-2.53.72-3.86l-.37-1.66,1.18-.67c.95-.54,1.69-1.38,2.12-2.38l.97-2.27.24-.24c1.62-1.62,1.93-4.14.75-6.1Z"/>
  </g>
</svg>